<svg width="49" height="46" viewBox="0 0 49 46" fill="none" xmlns="http://www.w3.org/2000/svg">
<g filter="url(#filter0_f_2002_102)">
<path d="M29.0544 18.3337L29.2819 19.0173L31.7213 26.3337H35.7204L35.9489 27.0173L38.6149 35.0173L39.0544 36.3337H9.61295L10.0514 35.0173L12.7184 27.0173L12.946 26.3337H16.946L19.3844 19.0173L19.6129 18.3337H29.0544ZM24.3327 32.1706L25.6129 28.3337H23.0534L24.3327 32.1706Z" stroke="url(#paint0_linear_2002_102)" stroke-opacity="0.5" stroke-width="2"/>
</g>
<g filter="url(#filter1_f_2002_102)">
<path d="M24.3334 35.3334H11L13.6667 27.3334H21.6667L24.3334 35.3334ZM24.3334 35.3334L27 27.3334H35L37.6667 35.3334H24.3334ZM9.66669 23.3334H13.6667M13.9334 12.9334L16.7334 15.7334M24.3334 8.66669V12.6667M34.7334 12.9334L31.9334 15.7334M39 23.3334H35M28.3334 19.3334H20.3334L17.6667 27.3334H31L28.3334 19.3334Z" stroke="url(#paint1_linear_2002_102)" stroke-opacity="0.4" stroke-width="4"/>
</g>
<path d="M24.3334 35.3334H11L13.6667 27.3334H21.6667L24.3334 35.3334ZM24.3334 35.3334L27 27.3334H35L37.6667 35.3334H24.3334ZM9.66669 23.3334H13.6667M13.9334 12.9334L16.7334 15.7334M24.3334 8.66669V12.6667M34.7334 12.9334L31.9334 15.7334M39 23.3334H35M28.3334 19.3334H20.3334L17.6667 27.3334H31L28.3334 19.3334Z" stroke="white" stroke-opacity="0.8" stroke-linecap="round" stroke-linejoin="round"/>
<defs>
<filter id="filter0_f_2002_102" x="4.22513" y="4.66669" width="40.2164" height="36.6667" filterUnits="userSpaceOnUse" color-interpolation-filters="sRGB">
<feFlood flood-opacity="0" result="BackgroundImageFix"/>
<feBlend mode="normal" in="SourceGraphic" in2="BackgroundImageFix" result="shape"/>
<feGaussianBlur stdDeviation="2" result="effect1_foregroundBlur_2002_102"/>
</filter>
<filter id="filter1_f_2002_102" x="0.225159" y="0.666687" width="48.2164" height="44.6667" filterUnits="userSpaceOnUse" color-interpolation-filters="sRGB">
<feFlood flood-opacity="0" result="BackgroundImageFix"/>
<feBlend mode="normal" in="SourceGraphic" in2="BackgroundImageFix" result="shape"/>
<feGaussianBlur stdDeviation="4" result="effect1_foregroundBlur_2002_102"/>
</filter>
<linearGradient id="paint0_linear_2002_102" x1="24.3333" y1="8.66669" x2="24.3333" y2="35.3334" gradientUnits="userSpaceOnUse">
<stop stop-color="#FFDF35"/>
<stop offset="1" stop-color="#FF7A00"/>
</linearGradient>
<linearGradient id="paint1_linear_2002_102" x1="24.3334" y1="8.66669" x2="24.3334" y2="35.3334" gradientUnits="userSpaceOnUse">
<stop stop-color="#FFDF35"/>
<stop offset="1" stop-color="#FF7A00"/>
</linearGradient>
</defs>
</svg>
