<svg width="47" height="47" viewBox="0 0 47 47" fill="none" xmlns="http://www.w3.org/2000/svg">
<g filter="url(#filter0_f_2002_67)">
<path d="M13.7604 10.2208C16.2758 9.4608 18.9252 9.24654 21.5299 9.59192C23.66 9.87445 25.7195 10.5281 27.6188 11.5157L27.6676 11.4738L27.6842 11.4591L27.7018 11.4454C28.2561 10.9992 28.9492 10.7522 29.6666 10.7521H29.6901L29.7135 10.7531L29.9215 10.7628L29.9723 10.7667C30.5044 10.8189 31.0119 11.0071 31.4479 11.3087L31.6305 11.4445L31.6481 11.4591L31.6647 11.4738L31.8209 11.6115L31.8444 11.632L31.8668 11.6544L35.3444 15.1329L35.3649 15.1534L35.3834 15.174L35.5221 15.3292L35.5553 15.3683C36.0014 15.9224 36.2476 16.6154 36.2477 17.3331V17.3595L36.2467 17.3849L36.236 17.5929L36.234 17.6163L36.2321 17.6388C36.169 18.2822 35.906 18.8896 35.4821 19.38C36.4703 21.2799 37.1252 23.3399 37.4078 25.4708C37.7316 27.9128 37.563 30.393 36.9147 32.7657L36.9108 32.7794L36.7819 33.2267L36.778 33.2394C36.7603 33.2979 36.7326 33.3804 36.691 33.4708L36.6764 33.504L36.6588 33.5353L36.6061 33.631L36.5905 33.6593L36.5729 33.6866C36.2705 34.1603 35.8461 34.5445 35.3444 34.798H35.3434C34.8425 35.0507 34.2814 35.1662 33.7194 35.1281H33.7184C33.157 35.0897 32.6163 34.9006 32.1539 34.5822V34.5812C31.7484 34.3016 31.4156 33.9315 31.1813 33.5021L31.1735 33.4874L31.1666 33.4728L31.1022 33.3448L31.0846 33.3107L31.0699 33.2745L31.0387 33.1984L31.027 33.17L31.0172 33.1417C30.2127 30.7856 29.0918 28.5527 27.6891 26.5011C27.5316 26.5371 27.3711 26.5633 27.2076 26.5743L26.9996 26.5812C26.988 26.5812 26.9761 26.5794 26.9645 26.5792L17.0983 36.4464C16.2844 37.2601 15.1984 37.7391 14.0553 37.796L14.0436 37.797H14.0328L13.8522 37.8019H13.8248C12.5978 37.8017 11.4203 37.3142 10.5524 36.4464C9.68458 35.5786 9.19732 34.4015 9.1969 33.1749V33.174C9.19697 31.947 9.6845 30.7686 10.5524 29.9005L20.4186 20.0333C20.4185 20.0224 20.4186 20.011 20.4186 20.0001C20.4186 19.7655 20.4457 19.5345 20.4967 19.3107C18.604 18.0167 16.5569 16.962 14.401 16.1749L13.8492 15.9806V15.9796C13.798 15.9618 13.7429 15.9418 13.6871 15.9161V15.9152C13.175 15.6794 12.7366 15.3103 12.4176 14.8478V14.8468C12.0983 14.3835 11.9089 13.8426 11.8707 13.2814C11.8327 12.7197 11.9474 12.1581 12.2008 11.6564V11.6554C12.4541 11.1543 12.8384 10.7289 13.3141 10.4259L13.3444 10.4064L13.3756 10.3898L13.4713 10.338L13.4996 10.3224L13.5289 10.3087C13.6004 10.2759 13.6778 10.2455 13.7594 10.2208H13.7604ZM13.0983 32.4464C12.905 32.6398 12.7966 32.9022 12.7965 33.174L12.8014 33.2755C12.8249 33.5102 12.9293 33.7315 13.0983 33.9005L13.1735 33.9689C13.3544 34.1173 13.5808 34.1989 13.8151 34.2013L13.9323 34.1954C14.1655 34.171 14.385 34.0678 14.5524 33.9005L23.7867 24.6661L22.3317 23.2101L13.0983 32.4464ZM30.5573 24.3185C31.8427 26.1753 32.9235 28.1652 33.778 30.255C34.0068 28.8317 34.0289 27.3794 33.8385 25.9435C33.6622 24.6139 33.3069 23.3181 32.7858 22.09L30.5573 24.3185ZM24.2115 19.9991L26.9987 22.7872L32.4537 17.3331L29.6656 14.545L24.2115 19.9991ZM21.0563 13.1603C19.6186 12.9697 18.164 12.9913 16.7389 13.2208C18.8293 14.0753 20.8201 15.1559 22.6774 16.4415L24.9069 14.212C23.6797 13.6913 22.3844 13.3364 21.0563 13.1603Z" stroke="url(#paint0_linear_2002_67)" stroke-opacity="0.5" stroke-width="2"/>
</g>
<g filter="url(#filter1_f_2002_67)">
<path fill-rule="evenodd" clip-rule="evenodd" d="M14.0494 11.1781C16.4286 10.4592 18.9343 10.2567 21.3981 10.5834C23.6504 10.8821 25.8201 11.6186 27.7877 12.7465L28.1676 12.3676L28.1725 12.3617L28.3287 12.224C28.7061 11.9203 29.1781 11.7524 29.6666 11.7523L29.8746 11.7621C30.2877 11.8026 30.6802 11.9638 31.0035 12.224L31.1598 12.3617L34.6373 15.8402L34.776 15.9955C35.0798 16.3729 35.2477 16.8448 35.2477 17.3334L35.2369 17.5414C35.1897 18.0236 34.9793 18.4776 34.6373 18.8266L34.2526 19.2104C35.381 21.1785 36.1178 23.3489 36.4166 25.602C36.7229 27.9117 36.5632 30.2578 35.9498 32.5023L35.8209 32.9496C35.8103 32.9847 35.7981 33.0199 35.7828 33.0531L35.7301 33.1488C35.5242 33.4715 35.2349 33.7331 34.8932 33.9057C34.5514 34.0781 34.1687 34.1562 33.7867 34.1303C33.4049 34.1042 33.0365 33.9753 32.7213 33.7582C32.4455 33.5681 32.219 33.3158 32.0592 33.0229L31.9948 32.8949L31.9635 32.8187C31.045 30.1288 29.7294 27.5933 28.0631 25.2943C27.742 25.4793 27.3763 25.5814 26.9996 25.5814C26.8609 25.5814 26.7236 25.5678 26.5895 25.5414L16.3912 35.7396C15.7534 36.3773 14.902 36.7527 14.0055 36.7973L13.8248 36.8021C12.8628 36.802 11.9397 36.4199 11.2594 35.7396C10.5791 35.0594 10.1971 34.1362 10.1969 33.1742C10.1969 32.212 10.5791 31.2882 11.2594 30.6078L21.4586 20.4086C21.4326 20.275 21.4186 20.1384 21.4186 20.0004C21.4186 19.6239 21.5202 19.2581 21.7047 18.9369C19.564 17.3852 17.2178 16.1378 14.733 15.2318L14.1813 15.0375C14.1556 15.0287 14.1298 15.0186 14.1051 15.0072C13.757 14.847 13.4584 14.5952 13.2408 14.2797C13.0234 13.9642 12.8948 13.5956 12.8688 13.2133C12.8429 12.8311 12.9206 12.4488 13.0934 12.1068C13.2663 11.7648 13.528 11.4748 13.8512 11.2689L13.9469 11.2172C13.98 11.202 14.0145 11.1887 14.0494 11.1781ZM12.3912 31.7396C12.011 32.12 11.7965 32.6364 11.7965 33.1742C11.7967 33.7119 12.011 34.2276 12.3912 34.6078C12.7715 34.988 13.2871 35.2024 13.8248 35.2025L14.026 35.1918C14.4901 35.1456 14.9267 34.9404 15.2594 34.6078L25.2018 24.6664L22.3317 21.7973L12.3912 31.7396ZM29.2535 24.2094C31.0521 26.6599 32.47 29.3694 33.4586 32.2465C33.4987 32.3239 33.5575 32.3911 33.6295 32.4408C33.7081 32.4948 33.8 32.527 33.8951 32.5336C33.9904 32.5401 34.0863 32.5208 34.1715 32.4779C34.2305 32.4482 34.2829 32.4065 34.3268 32.3578C34.9485 30.2351 35.1206 28.0056 34.8297 25.8119C34.5774 23.9095 33.9826 22.0717 33.0768 20.3861L29.2535 24.2094ZM29.6666 13.352C29.5297 13.3521 29.3974 13.4051 29.2985 13.4994L23.1656 19.6322C23.0714 19.7313 23.0182 19.8634 23.0182 20.0004C23.0183 20.1371 23.0715 20.2686 23.1656 20.3676L26.6256 23.8285C26.7252 23.926 26.8603 23.9807 26.9996 23.9809C27.1391 23.9808 27.273 23.9261 27.3727 23.8285L33.4948 17.7064C33.5679 17.6318 33.6173 17.538 33.6373 17.4369L33.6471 17.3334C33.6471 17.1939 33.5924 17.06 33.4948 16.9604L30.0338 13.4994C29.9601 13.4295 29.8676 13.3821 29.7692 13.3627L29.6666 13.352ZM21.1881 12.1693C18.9941 11.8784 16.7633 12.0502 14.6403 12.6723C14.5915 12.7162 14.551 12.7695 14.5211 12.8285C14.4781 12.9139 14.4581 13.0095 14.4645 13.1049C14.471 13.2004 14.5039 13.2927 14.5582 13.3715C14.6087 13.4447 14.6773 13.5032 14.7565 13.5434C17.6313 14.5318 20.3389 15.9493 22.7877 17.7465L26.6119 13.9223C24.927 13.0169 23.0898 12.4216 21.1881 12.1693Z" stroke="url(#paint1_linear_2002_67)" stroke-opacity="0.4" stroke-width="4"/>
</g>
<path d="M14.194 11.6564C16.505 10.9581 18.9393 10.7619 21.3326 11.0792C23.52 11.3693 25.6274 12.0843 27.5387 13.1798C27.7343 13.292 27.9816 13.2599 28.1412 13.1007L28.5211 12.7218C28.5223 12.7207 28.5229 12.719 28.524 12.7179L28.6471 12.6085C28.9317 12.3813 29.2867 12.255 29.6539 12.2521L29.8346 12.2609C30.1441 12.293 30.4387 12.4138 30.6832 12.6085L30.8199 12.7286L34.2701 16.1798L34.3893 16.3136C34.6198 16.6018 34.7476 16.961 34.7477 17.3331L34.7389 17.4923C34.7029 17.8598 34.5435 18.2062 34.2838 18.4728L33.899 18.8566C33.7393 19.0162 33.7066 19.2632 33.819 19.4591C34.9152 21.3711 35.6303 23.4798 35.9205 25.6681C36.2176 27.9091 36.0635 30.1853 35.4694 32.3634L35.3424 32.8048C35.3374 32.8212 35.3332 32.8317 35.3307 32.838L35.3053 32.8829C35.1478 33.1283 34.9279 33.3277 34.6676 33.4591C34.4055 33.5913 34.1126 33.6508 33.8209 33.631C33.5291 33.6111 33.247 33.513 33.0055 33.3468C32.7946 33.2015 32.6202 33.0079 32.4977 32.7833L32.4528 32.6925L32.4303 32.6388C31.496 29.9085 30.1599 27.3349 28.4684 25.0011C28.3369 24.8197 28.1038 24.751 27.899 24.8224L27.8131 24.8615C27.5654 25.0041 27.2855 25.0812 26.9996 25.0812L26.8414 25.0734C26.7892 25.0682 26.7374 25.061 26.6862 25.0509C26.5433 25.0228 26.3962 25.0585 26.2828 25.1466L26.236 25.1876L16.0377 35.3859C15.4904 35.933 14.7603 36.2562 13.9908 36.297L13.817 36.3009C12.9903 36.2987 12.1976 35.9704 11.6129 35.3859C11.0266 34.7995 10.6971 34.0035 10.6969 33.174L10.7008 33.0187C10.7393 32.2455 11.0632 31.5109 11.6129 30.9611L21.8121 20.7618C21.9296 20.6443 21.9816 20.4758 21.9498 20.3126C21.9296 20.2089 21.9186 20.1043 21.9186 20.0001C21.9186 19.714 21.9959 19.4335 22.1383 19.1857C22.2655 18.964 22.2046 18.6824 21.9977 18.5323C19.8196 16.9536 17.4322 15.6837 14.9039 14.7618L14.899 14.7599L14.3473 14.5656L14.3434 14.5646L14.3141 14.5529C14.0482 14.4304 13.8198 14.2379 13.653 13.9962C13.4866 13.7548 13.3878 13.4724 13.3678 13.1798C13.348 12.8874 13.4073 12.5941 13.5397 12.3322C13.6702 12.0741 13.8666 11.8551 14.108 11.6984L14.1676 11.6671C14.1771 11.6632 14.1857 11.6589 14.194 11.6564ZM22.6852 21.4435C22.5142 21.2726 22.2503 21.2516 22.0563 21.38L21.9781 21.4435L12.0377 31.3859C11.5642 31.8596 11.2966 32.5032 11.2965 33.174C11.2968 33.7607 11.5012 34.3269 11.8698 34.7765L12.0377 34.9611C12.5114 35.4346 13.1541 35.7021 13.8248 35.7023C13.8336 35.7023 13.8424 35.7027 13.8512 35.7023L14.0524 35.6915C14.06 35.6911 14.0682 35.6903 14.0758 35.6896C14.5819 35.6392 15.0619 35.437 15.4518 35.1095L15.6129 34.9611L25.5553 25.0197C25.649 24.9259 25.7018 24.7987 25.7018 24.6661C25.7017 24.5336 25.649 24.4063 25.5553 24.3126L22.6852 21.4435ZM33.15 19.8917C33.0327 19.8745 32.914 19.8993 32.8151 19.9601L32.7233 20.0323L28.9 23.8556C28.7255 24.0301 28.7044 24.306 28.8502 24.505C30.6189 26.9149 32.0138 29.5799 32.986 32.4093C32.9939 32.4324 33.0031 32.455 33.0143 32.4767C33.0915 32.6257 33.2049 32.7557 33.3453 32.8527H33.3463C33.4602 32.9309 33.5884 32.986 33.7233 33.0138L33.861 33.0323C34.0452 33.0449 34.2308 33.008 34.3961 32.9249L34.3971 32.924C34.5168 32.8635 34.6174 32.7817 34.6979 32.6925C34.7482 32.6367 34.7852 32.5703 34.8063 32.4982C35.4475 30.3087 35.6259 28.0091 35.3258 25.7462C35.0655 23.7839 34.4515 21.8881 33.5172 20.1495C33.4424 20.0104 33.3063 19.9149 33.15 19.8917ZM29.6666 12.8517C29.4016 12.8519 29.1455 12.9543 28.9537 13.1368L22.8033 19.2872C22.6213 19.4786 22.5183 19.7342 22.5182 20.0001V20.0011C22.5185 20.2673 22.6221 20.5214 22.8033 20.712L22.8121 20.7208L26.2721 24.1818L26.276 24.1857C26.4456 24.3517 26.6664 24.4529 26.899 24.4757L26.9996 24.4806C27.2701 24.4805 27.5294 24.3745 27.7223 24.1857L33.8483 18.0597L33.8522 18.0568C33.9931 17.913 34.0885 17.7311 34.1276 17.5343C34.1309 17.5177 34.1338 17.5004 34.1354 17.4835L34.1451 17.38C34.1466 17.3645 34.1471 17.3487 34.1471 17.3331C34.147 17.0964 34.0656 16.8683 33.9186 16.6857L33.8522 16.6105L30.3873 13.1456L30.3776 13.1368L30.2643 13.0431C30.145 12.9586 30.0089 12.9004 29.8658 12.8722C29.8511 12.8693 29.8359 12.8669 29.8209 12.8654L29.7184 12.8546L29.6666 12.8517ZM21.2535 11.674C18.9904 11.3739 16.6894 11.5509 14.4996 12.1925C14.4636 12.2031 14.4287 12.2173 14.3961 12.2355L14.3053 12.3009C14.21 12.3868 14.132 12.4897 14.0748 12.6027V12.6036C14.0131 12.7261 13.975 12.8606 13.9655 12.9991V13.1388C13.9783 13.3261 14.0422 13.5046 14.1461 13.6554H14.1471C14.2473 13.8006 14.3805 13.9135 14.5299 13.9894C14.5505 13.9998 14.5725 14.0082 14.5944 14.0157C17.4214 14.9878 20.0837 16.3822 22.4918 18.1495C22.6908 18.2956 22.9667 18.2743 23.1412 18.0997L26.9655 14.2755C27.0771 14.1638 27.1299 14.006 27.1071 13.8497C27.084 13.6933 26.9876 13.5564 26.8483 13.4816C25.1105 12.5478 23.2151 11.9341 21.2535 11.674Z" stroke="white" stroke-opacity="0.8" stroke-linecap="round" stroke-linejoin="round"/>
<defs>
<filter id="filter0_f_2002_67" x="4.1969" y="4.43176" width="38.3711" height="38.3704" filterUnits="userSpaceOnUse" color-interpolation-filters="sRGB">
<feFlood flood-opacity="0" result="BackgroundImageFix"/>
<feBlend mode="normal" in="SourceGraphic" in2="BackgroundImageFix" result="shape"/>
<feGaussianBlur stdDeviation="2" result="effect1_foregroundBlur_2002_67"/>
</filter>
<filter id="filter1_f_2002_67" x="0.196899" y="0.431763" width="46.3711" height="46.3704" filterUnits="userSpaceOnUse" color-interpolation-filters="sRGB">
<feFlood flood-opacity="0" result="BackgroundImageFix"/>
<feBlend mode="normal" in="SourceGraphic" in2="BackgroundImageFix" result="shape"/>
<feGaussianBlur stdDeviation="4" result="effect1_foregroundBlur_2002_67"/>
</filter>
<linearGradient id="paint0_linear_2002_67" x1="23.3825" y1="10.4318" x2="23.3825" y2="36.8021" gradientUnits="userSpaceOnUse">
<stop stop-color="#82E024"/>
<stop offset="1" stop-color="#499100"/>
</linearGradient>
<linearGradient id="paint1_linear_2002_67" x1="23.3825" y1="10.4318" x2="23.3825" y2="36.8021" gradientUnits="userSpaceOnUse">
<stop stop-color="#82E024"/>
<stop offset="1" stop-color="#499100"/>
</linearGradient>
</defs>
</svg>
