<svg width="50" height="44" viewBox="0 0 50 44" fill="none" xmlns="http://www.w3.org/2000/svg">
<g filter="url(#filter0_f_2002_106)">
<path d="M18.334 29.083C17.828 29.083 17.4171 29.4937 17.417 30L17.4219 30.0938C17.469 30.5554 17.8591 30.916 18.334 30.916L18.4277 30.9111C18.8897 30.864 19.2498 30.4741 19.25 30L19.2451 29.9062C19.1981 29.4439 18.8079 29.0833 18.334 29.083ZM31.667 29.083C31.161 29.083 30.7501 29.4937 30.75 30L30.7549 30.0938C30.802 30.5554 31.1921 30.916 31.667 30.916L31.7607 30.9111C32.2227 30.8641 32.5828 30.4743 32.583 30L32.5781 29.9062C32.5311 29.4437 32.1408 29.0832 31.667 29.083ZM29.417 26.2012C30.0759 25.8098 30.8443 25.583 31.667 25.583C33.4854 25.5832 35.0424 26.6823 35.7197 28.25H36.584V23.9502L32.1572 18.417H29.417V26.2012ZM14.334 13.083C14.1215 13.083 13.9163 13.1572 13.7529 13.291L13.6855 13.3516C13.5137 13.5234 13.4171 13.7569 13.417 14V28.25H14.2803C14.9579 26.6821 16.5155 25.583 18.334 25.583C20.1522 25.5833 21.7094 26.6823 22.3867 28.25H25.917V14C25.9169 13.7569 25.8203 13.5234 25.6484 13.3516C25.501 13.2041 25.3077 13.1128 25.1016 13.0898L24.9668 13.083H14.334ZM40.084 28.667L40.0801 28.8203C40.0446 29.5317 39.7637 30.2089 39.2861 30.7363L39.1807 30.8467C38.6386 31.3887 37.9151 31.7081 37.1533 31.7461L37 31.75H35.7197C35.0668 33.261 33.5968 34.3362 31.8633 34.4121L31.667 34.416C29.849 34.416 28.2902 33.3182 27.6123 31.75H22.3867C21.7338 33.261 20.2636 34.3361 18.5303 34.4121L18.334 34.416C16.516 34.416 14.9572 33.3182 14.2793 31.75H13C12.2332 31.7499 11.4959 31.464 10.9307 30.9521L10.8203 30.8467C10.242 30.2684 9.91699 29.4837 9.91699 28.666V14L9.92285 13.7812C9.97704 12.6895 10.4345 11.6534 11.2109 10.877C12.039 10.0491 13.1625 9.58301 14.334 9.58301H25.0234L25.1934 9.58691L25.2061 9.58789H25.2197C26.3116 9.64222 27.347 10.1009 28.123 10.877C28.9512 11.7051 29.4169 12.8286 29.417 14V14.917H32.3906L32.4199 14.9189L32.6533 14.9326L32.6807 14.9336L32.708 14.9375C33.051 14.9767 33.3859 15.0736 33.6973 15.2236C34.1115 15.4235 34.4777 15.7138 34.7666 16.0752H34.7676L39.4062 21.874L39.4189 21.8906L39.4316 21.9082L39.5361 22.0508L39.5596 22.084C39.8976 22.5876 40.0828 23.1833 40.084 23.7969V28.667Z" stroke="url(#paint0_linear_2002_106)" stroke-opacity="0.5" stroke-width="2"/>
</g>
<g filter="url(#filter1_f_2002_106)">
<path fill-rule="evenodd" clip-rule="evenodd" d="M25.1699 10.5869C26.0143 10.6289 26.8154 10.9834 27.416 11.584C28.0567 12.2247 28.4169 13.0939 28.417 14V15.917H32.3613L32.5947 15.9307C32.8261 15.9571 33.052 16.0225 33.2627 16.124C33.5438 16.2596 33.7916 16.4563 33.9863 16.7002L38.625 22.499L38.7295 22.6416C38.9585 22.9828 39.0832 23.3853 39.084 23.7988V28.667C39.0839 29.2193 38.8641 29.749 38.4736 30.1396C38.083 30.5303 37.5524 30.7499 37 30.75H34.999C34.6571 32.2758 33.296 33.4159 31.667 33.416C30.0377 33.416 28.675 32.276 28.333 30.75H21.666C21.3242 32.2758 19.9629 33.4157 18.334 33.416C16.7048 33.416 15.342 32.276 15 30.75H13C12.4477 30.7499 11.918 30.5302 11.5273 30.1396C11.1366 29.7489 10.917 29.2185 10.917 28.666V14C10.9171 13.0939 11.2773 12.2247 11.918 11.584C12.5587 10.9434 13.4279 10.583 14.334 10.583H25L25.1699 10.5869ZM18.334 28.083C17.2755 28.083 16.4171 28.9416 16.417 30C16.4172 31.0584 17.2755 31.916 18.334 31.916C19.3922 31.9157 20.2498 31.0582 20.25 30C20.2499 28.9418 19.3922 28.0833 18.334 28.083ZM31.667 28.083C30.6085 28.083 29.7501 28.9416 29.75 30C29.7502 31.0584 30.6086 31.916 31.667 31.916C32.7253 31.9158 33.5828 31.0583 33.583 30C33.5829 28.9417 32.7253 28.0832 31.667 28.083ZM14.334 12.083C13.8258 12.083 13.3379 12.2852 12.9785 12.6445C12.6191 13.0039 12.4171 13.4918 12.417 14V28.666C12.417 28.8207 12.4785 28.9697 12.5879 29.0791C12.6972 29.1883 12.8455 29.2499 13 29.25H15.001C15.3431 27.724 16.7049 26.583 18.334 26.583C19.9629 26.5833 21.3241 27.7242 21.666 29.25H26.917V14C26.9169 13.4918 26.7149 13.0039 26.3555 12.6445C26.0409 12.33 25.6282 12.1363 25.1895 12.0928L25 12.083H14.334ZM28.417 28.9434C28.8622 27.5736 30.1489 26.583 31.667 26.583C33.296 26.5832 34.6571 27.7241 34.999 29.25H37C37.1546 29.2499 37.3037 29.1884 37.4131 29.0791C37.5222 28.9698 37.5839 28.8215 37.584 28.667V23.8018L37.5752 23.7031C37.5585 23.6066 37.517 23.5148 37.4551 23.4375L32.8145 17.6367C32.76 17.5685 32.69 17.5126 32.6113 17.4746C32.572 17.4557 32.5305 17.4413 32.4883 17.4316L32.3594 17.417H28.417V28.9434Z" stroke="url(#paint1_linear_2002_106)" stroke-opacity="0.4" stroke-width="4"/>
</g>
<path d="M14.334 11.083H24.9883L25.1543 11.0859C25.8714 11.1239 26.5518 11.4268 27.0625 11.9375C27.6095 12.4845 27.9169 13.2266 27.917 14V15.917C27.917 16.1931 28.1408 16.417 28.417 16.417H32.3486L32.541 16.4277C32.7154 16.448 32.8864 16.4973 33.0459 16.5742C33.2066 16.6518 33.3523 16.7559 33.4775 16.8809L33.5957 17.0127L38.2275 22.8027L38.3203 22.9297C38.4693 23.155 38.5585 23.4142 38.5791 23.6826L38.584 23.7998V28.667L38.5762 28.8232C38.5453 29.1336 38.4234 29.4284 38.2256 29.6699L38.1201 29.7861C37.8233 30.0829 37.4199 30.2499 37 30.25H34.999C34.765 30.25 34.5619 30.4123 34.5107 30.6406C34.2189 31.9432 33.0567 32.9159 31.667 32.916C30.2767 32.916 29.1132 31.9432 28.8213 30.6406C28.7701 30.4123 28.567 30.25 28.333 30.25H21.666C21.432 30.25 21.2289 30.4123 21.1777 30.6406C20.8859 31.9431 19.7237 32.9158 18.334 32.916C16.9438 32.916 15.7802 31.9432 15.4883 30.6406C15.4371 30.4123 15.234 30.25 15 30.25H13C12.633 30.2499 12.2788 30.1224 11.9971 29.8916L11.8809 29.7861C11.5839 29.4892 11.417 29.086 11.417 28.666V14C11.4171 13.2266 11.7245 12.4845 12.2715 11.9375C12.8185 11.3906 13.5607 11.083 14.334 11.083ZM18.334 27.583C16.9993 27.583 15.9172 28.6655 15.917 30L15.9297 30.2471C16.0536 31.4657 17.083 32.416 18.334 32.416C19.6681 32.4156 20.7498 31.3343 20.75 30L20.7373 29.7529C20.6135 28.5348 19.585 27.5834 18.334 27.583ZM31.667 27.583C30.3323 27.583 29.2502 28.6655 29.25 30L29.2627 30.2471C29.3866 31.4657 30.416 32.416 31.667 32.416C33.0014 32.4158 34.0828 31.3344 34.083 30L34.0703 29.7529C33.9465 28.5347 32.9183 27.5832 31.667 27.583ZM14.334 11.583C13.7732 11.583 13.2327 11.7787 12.8027 12.1309L12.625 12.291C12.1718 12.7442 11.9171 13.3592 11.917 14V28.666C11.917 28.9171 12.0039 29.1604 12.1621 29.3535L12.2344 29.4326C12.4118 29.6099 12.6447 29.7203 12.8926 29.7451L13 29.75H15.001C15.235 29.75 15.4381 29.5877 15.4893 29.3594C15.7814 28.0565 16.9443 27.083 18.334 27.083C19.7234 27.0833 20.8858 28.0566 21.1777 29.3594C21.2289 29.5877 21.432 29.75 21.666 29.75H26.917C27.1931 29.75 27.417 29.5261 27.417 29.25V14L27.4053 13.7607C27.3502 13.2077 27.1054 12.6874 26.709 12.291C26.3124 11.8944 25.7921 11.6507 25.2393 11.5957L25.2148 11.5938L25.0254 11.584L25 11.583H14.334ZM38.082 23.7578L38.0732 23.6592L38.0674 23.6182L38.0361 23.4844C38.0093 23.3973 37.9714 23.3139 37.9238 23.2363L37.8457 23.125L33.2041 17.3242C33.1032 17.1981 32.9749 17.0949 32.8291 17.0244H32.8281C32.7545 16.989 32.6774 16.9621 32.5996 16.9443L32.5449 16.9346L32.416 16.9199C32.3973 16.9178 32.3782 16.917 32.3594 16.917H28.417C28.1408 16.917 27.917 17.1408 27.917 17.417V28.9434C27.917 29.1893 28.096 29.399 28.3389 29.4375C28.5817 29.4759 28.8166 29.3315 28.8926 29.0977C29.2729 27.9278 30.3721 27.083 31.667 27.083C33.0565 27.0832 34.2188 28.0565 34.5107 29.3594C34.5619 29.5877 34.765 29.75 34.999 29.75H37C37.2508 29.7499 37.4943 29.6631 37.6875 29.5049L37.7666 29.4326C37.9688 29.2301 38.0839 28.9545 38.084 28.667V23.8018C38.084 23.7871 38.0833 23.7724 38.082 23.7578Z" stroke="white" stroke-opacity="0.8" stroke-linecap="round" stroke-linejoin="round"/>
<defs>
<filter id="filter0_f_2002_106" x="4.91699" y="4.58301" width="40.167" height="34.833" filterUnits="userSpaceOnUse" color-interpolation-filters="sRGB">
<feFlood flood-opacity="0" result="BackgroundImageFix"/>
<feBlend mode="normal" in="SourceGraphic" in2="BackgroundImageFix" result="shape"/>
<feGaussianBlur stdDeviation="2" result="effect1_foregroundBlur_2002_106"/>
</filter>
<filter id="filter1_f_2002_106" x="0.916992" y="0.583008" width="48.167" height="42.833" filterUnits="userSpaceOnUse" color-interpolation-filters="sRGB">
<feFlood flood-opacity="0" result="BackgroundImageFix"/>
<feBlend mode="normal" in="SourceGraphic" in2="BackgroundImageFix" result="shape"/>
<feGaussianBlur stdDeviation="4" result="effect1_foregroundBlur_2002_106"/>
</filter>
<linearGradient id="paint0_linear_2002_106" x1="25.0005" y1="10.583" x2="25.0005" y2="33.416" gradientUnits="userSpaceOnUse">
<stop stop-color="#9955FF"/>
<stop offset="1" stop-color="#5523A0"/>
</linearGradient>
<linearGradient id="paint1_linear_2002_106" x1="25.0005" y1="10.583" x2="25.0005" y2="33.416" gradientUnits="userSpaceOnUse">
<stop stop-color="#9955FF"/>
<stop offset="1" stop-color="#5523A0"/>
</linearGradient>
</defs>
</svg>
