<svg width="22" height="29" viewBox="0 0 22 29" fill="none" xmlns="http://www.w3.org/2000/svg">
<path d="M3.03089 18.2727L4.82067 24.4261H4.88885L6.67862 18.2727H9.35476L6.47408 27H3.23544L0.354759 18.2727H3.03089ZM12.5646 18.2727V27H10.1953V18.2727H12.5646ZM14.6875 27V18.2727H18.4545C19.1023 18.2727 19.669 18.4006 20.1548 18.6562C20.6406 18.9119 21.0185 19.2713 21.2884 19.7344C21.5582 20.1974 21.6932 20.7386 21.6932 21.358C21.6932 21.983 21.554 22.5241 21.2756 22.9815C21 23.4389 20.6122 23.7912 20.1122 24.0384C19.6151 24.2855 19.0341 24.4091 18.3693 24.4091H16.1193V22.5682H17.892C18.1705 22.5682 18.4077 22.5199 18.6037 22.4233C18.8026 22.3239 18.9545 22.1832 19.0597 22.0014C19.1676 21.8196 19.2216 21.6051 19.2216 21.358C19.2216 21.108 19.1676 20.8949 19.0597 20.7188C18.9545 20.5398 18.8026 20.4034 18.6037 20.3097C18.4077 20.2131 18.1705 20.1648 17.892 20.1648H17.0568V27H14.6875Z" fill="#FFA00F"/>
<path d="M3.03089 18.2727L4.82067 24.4261H4.88885L6.67862 18.2727H9.35476L6.47408 27H3.23544L0.354759 18.2727H3.03089ZM12.5646 18.2727V27H10.1953V18.2727H12.5646ZM14.6875 27V18.2727H18.4545C19.1023 18.2727 19.669 18.4006 20.1548 18.6562C20.6406 18.9119 21.0185 19.2713 21.2884 19.7344C21.5582 20.1974 21.6932 20.7386 21.6932 21.358C21.6932 21.983 21.554 22.5241 21.2756 22.9815C21 23.4389 20.6122 23.7912 20.1122 24.0384C19.6151 24.2855 19.0341 24.4091 18.3693 24.4091H16.1193V22.5682H17.892C18.1705 22.5682 18.4077 22.5199 18.6037 22.4233C18.8026 22.3239 18.9545 22.1832 19.0597 22.0014C19.1676 21.8196 19.2216 21.6051 19.2216 21.358C19.2216 21.108 19.1676 20.8949 19.0597 20.7188C18.9545 20.5398 18.8026 20.4034 18.6037 20.3097C18.4077 20.2131 18.1705 20.1648 17.892 20.1648H17.0568V27H14.6875Z" fill="url(#paint0_linear_2002_84)" fill-opacity="0.3" style="mix-blend-mode:overlay"/>
<path d="M3.03089 18.2727L4.82067 24.4261H4.88885L6.67862 18.2727H9.35476L6.47408 27H3.23544L0.354759 18.2727H3.03089ZM12.5646 18.2727V27H10.1953V18.2727H12.5646ZM14.6875 27V18.2727H18.4545C19.1023 18.2727 19.669 18.4006 20.1548 18.6562C20.6406 18.9119 21.0185 19.2713 21.2884 19.7344C21.5582 20.1974 21.6932 20.7386 21.6932 21.358C21.6932 21.983 21.554 22.5241 21.2756 22.9815C21 23.4389 20.6122 23.7912 20.1122 24.0384C19.6151 24.2855 19.0341 24.4091 18.3693 24.4091H16.1193V22.5682H17.892C18.1705 22.5682 18.4077 22.5199 18.6037 22.4233C18.8026 22.3239 18.9545 22.1832 19.0597 22.0014C19.1676 21.8196 19.2216 21.6051 19.2216 21.358C19.2216 21.108 19.1676 20.8949 19.0597 20.7188C18.9545 20.5398 18.8026 20.4034 18.6037 20.3097C18.4077 20.2131 18.1705 20.1648 17.892 20.1648H17.0568V27H14.6875Z" fill="url(#paint1_radial_2002_84)" fill-opacity="0.6" style="mix-blend-mode:overlay"/>
<path d="M15.188 5.78079L11.5792 0L7.97038 5.78079L1.50037 0.278867L5.19405 11.4942H17.9644L21.658 0.278867L15.188 5.78079Z" fill="#FFA00F"/>
<path d="M15.188 5.78079L11.5792 0L7.97038 5.78079L1.50037 0.278867L5.19405 11.4942H17.9644L21.658 0.278867L15.188 5.78079Z" fill="url(#paint2_linear_2002_84)" fill-opacity="0.3" style="mix-blend-mode:overlay"/>
<path d="M15.188 5.78079L11.5792 0L7.97038 5.78079L1.50037 0.278867L5.19405 11.4942H17.9644L21.658 0.278867L15.188 5.78079Z" fill="url(#paint3_radial_2002_84)" fill-opacity="0.6" style="mix-blend-mode:overlay"/>
<path d="M16.9867 14H6.17233C5.63484 14 5.19435 13.5595 5.19435 13.0219V12.4036H17.9647V13.0219C17.9647 13.5595 17.5242 14 16.9867 14Z" fill="#FFA00F"/>
<path d="M16.9867 14H6.17233C5.63484 14 5.19435 13.5595 5.19435 13.0219V12.4036H17.9647V13.0219C17.9647 13.5595 17.5242 14 16.9867 14Z" fill="url(#paint4_linear_2002_84)" fill-opacity="0.3" style="mix-blend-mode:overlay"/>
<path d="M16.9867 14H6.17233C5.63484 14 5.19435 13.5595 5.19435 13.0219V12.4036H17.9647V13.0219C17.9647 13.5595 17.5242 14 16.9867 14Z" fill="url(#paint5_radial_2002_84)" fill-opacity="0.6" style="mix-blend-mode:overlay"/>
<defs>
<linearGradient id="paint0_linear_2002_84" x1="11" y1="14.9873" x2="11" y2="29" gradientUnits="userSpaceOnUse">
<stop stop-color="white"/>
<stop offset="1" stop-color="white" stop-opacity="0"/>
</linearGradient>
<radialGradient id="paint1_radial_2002_84" cx="0" cy="0" r="1" gradientUnits="userSpaceOnUse" gradientTransform="translate(2.4691e-06 14.9873) rotate(32.4947) scale(26.0836 11.9708)">
<stop stop-color="white"/>
<stop offset="1" stop-color="white" stop-opacity="0"/>
</radialGradient>
<linearGradient id="paint2_linear_2002_84" x1="11.5792" y1="-3.15647" x2="11.5792" y2="11.4942" gradientUnits="userSpaceOnUse">
<stop stop-color="white"/>
<stop offset="1" stop-color="white" stop-opacity="0"/>
</linearGradient>
<radialGradient id="paint3_radial_2002_84" cx="0" cy="0" r="1" gradientUnits="userSpaceOnUse" gradientTransform="translate(1.50037 -3.15647) rotate(36.0098) scale(24.9194 12.0035)">
<stop stop-color="white"/>
<stop offset="1" stop-color="white" stop-opacity="0"/>
</radialGradient>
<linearGradient id="paint4_linear_2002_84" x1="11.5795" y1="12.4036" x2="11.5795" y2="14" gradientUnits="userSpaceOnUse">
<stop stop-color="white"/>
<stop offset="1" stop-color="white" stop-opacity="0"/>
</linearGradient>
<radialGradient id="paint5_radial_2002_84" cx="0" cy="0" r="1" gradientUnits="userSpaceOnUse" gradientTransform="translate(5.19435 12.4036) rotate(7.1256) scale(12.8697 1.60445)">
<stop stop-color="white"/>
<stop offset="1" stop-color="white" stop-opacity="0"/>
</radialGradient>
</defs>
</svg>
