<svg width="124" height="124" viewBox="0 0 124 124" fill="none" xmlns="http://www.w3.org/2000/svg">
<path d="M42.5216 20.1944C46.5636 16.1524 52.455 14.5738 57.9765 16.0533L88.4271 24.2125C93.9485 25.692 98.2613 30.0048 99.7408 35.5262L107.9 65.9768C109.379 71.4983 107.801 77.3897 103.759 81.4317L81.4675 103.723C77.4255 107.765 71.5342 109.344 66.0127 107.864L35.5621 99.7049C30.0406 98.2255 25.7278 93.9127 24.2484 88.3912L16.0891 57.9406C14.6097 52.4191 16.1883 46.5278 20.2302 42.4858L42.5216 20.1944Z" fill="url(#paint0_linear_1_3142)"/>
<g filter="url(#filter0_f_1_3142)">
<path d="M17.6098 58.5879C16.1277 53.0566 17.7146 47.1551 21.7709 43.1131L43.0006 21.9582C45.1795 19.7869 48.8916 20.785 49.6877 23.7563L58.3907 56.2361C59.9009 61.8723 58.2231 67.8838 54.0123 71.9233L33.9985 91.123C31.2541 93.7558 26.6918 92.4824 25.7075 88.809L17.6098 58.5879Z" fill="url(#paint1_linear_1_3142)"/>
</g>
<g filter="url(#filter1_f_1_3142)">
<path d="M56.8242 72.7011C60.7983 68.8536 66.4779 67.3318 71.8434 68.6767L100.589 75.8821C102.845 76.4478 103.627 79.2552 101.988 80.9059L80.2333 102.815C76.6841 106.39 71.4884 107.782 66.6276 106.461L36.8325 98.3643C34.5876 97.7543 33.8612 94.932 35.5326 93.3139L56.8242 72.7011Z" fill="url(#paint2_linear_1_3142)"/>
<path d="M56.8242 72.7011C60.7983 68.8536 66.4779 67.3318 71.8434 68.6767L100.589 75.8821C102.845 76.4478 103.627 79.2552 101.988 80.9059L80.2333 102.815C76.6841 106.39 71.4884 107.782 66.6276 106.461L36.8325 98.3643C34.5876 97.7543 33.8612 94.932 35.5326 93.3139L56.8242 72.7011Z" fill="url(#paint3_linear_1_3142)"/>
</g>
<g filter="url(#filter2_f_1_3142)">
<path d="M53.5514 22.7211C52.7553 19.7499 55.4709 17.0294 58.4436 17.8203L87.4066 25.5262C92.9404 26.9985 97.2655 31.3159 98.7475 36.8472L107.283 68.7019C108.07 71.6407 105.419 74.3478 102.464 73.6216L73.8897 66.5972C68.2233 65.2043 63.7646 60.8371 62.2544 55.2009L53.5514 22.7211Z" fill="#FEBE9F"/>
</g>
<g filter="url(#filter3_i_1_3142)">
<circle cx="5.0986" cy="5.0986" r="5.0986" transform="matrix(0.707107 -0.707107 0.266734 0.96377 26.2906 78.2747)" fill="#181A20"/>
</g>
<g filter="url(#filter4_i_1_3142)">
<circle cx="5.0986" cy="5.0986" r="5.0986" transform="matrix(0.707107 -0.707107 0.266734 0.96377 38.4793 32.028)" fill="#181A20"/>
</g>
<g filter="url(#filter5_i_1_3142)">
<circle cx="5.0986" cy="5.0986" r="5.0986" transform="matrix(0.707107 -0.707107 0.266734 0.96377 45.862 58.7032)" fill="#181A20"/>
</g>
<g filter="url(#filter6_i_1_3142)">
<circle cx="5.0986" cy="5.0986" r="5.0986" transform="matrix(0.707107 -0.707107 0.266734 0.96377 18.9079 51.5994)" fill="#181A20"/>
</g>
<g filter="url(#filter7_i_1_3142)">
<circle cx="4.8982" cy="4.8982" r="4.8982" transform="matrix(0.962455 0.27144 0.266734 0.96377 75.2162 39.9165)" fill="#181A20"/>
</g>
<g filter="url(#filter8_i_1_3142)">
<circle cx="4.8982" cy="4.8982" r="4.8982" transform="matrix(0.962455 0.27144 0.266734 0.96377 91.5585 56.3387)" fill="#181A20"/>
</g>
<g filter="url(#filter9_i_1_3142)">
<circle cx="4.8982" cy="4.8982" r="4.8982" transform="matrix(0.962455 0.27144 0.266734 0.96377 58.8741 23.4943)" fill="#181A20"/>
</g>
<g filter="url(#filter10_i_1_3142)">
<circle cx="4.58973" cy="4.58973" r="4.58973" transform="matrix(0.965936 0.258783 -0.707133 0.70708 70.8309 95.2775)" fill="#181A20"/>
</g>
<g filter="url(#filter11_i_1_3142)">
<circle cx="4.58973" cy="4.58973" r="4.58973" transform="matrix(0.965936 0.258783 -0.707133 0.70708 64.3827 71.2123)" fill="#181A20"/>
</g>
<defs>
<filter id="filter0_f_1_3142" x="14.0642" y="17.7891" width="47.872" height="77.729" filterUnits="userSpaceOnUse" color-interpolation-filters="sRGB">
<feFlood flood-opacity="0" result="BackgroundImageFix"/>
<feBlend mode="normal" in="SourceGraphic" in2="BackgroundImageFix" result="shape"/>
<feGaussianBlur stdDeviation="1.5" result="effect1_foregroundBlur_1_3142"/>
</filter>
<filter id="filter1_f_1_3142" x="31.6175" y="65.1963" width="74.244" height="44.7549" filterUnits="userSpaceOnUse" color-interpolation-filters="sRGB">
<feFlood flood-opacity="0" result="BackgroundImageFix"/>
<feBlend mode="normal" in="SourceGraphic" in2="BackgroundImageFix" result="shape"/>
<feGaussianBlur stdDeviation="1.5" result="effect1_foregroundBlur_1_3142"/>
</filter>
<filter id="filter2_f_1_3142" x="50.4109" y="14.6816" width="60.0124" height="62.0592" filterUnits="userSpaceOnUse" color-interpolation-filters="sRGB">
<feFlood flood-opacity="0" result="BackgroundImageFix"/>
<feBlend mode="normal" in="SourceGraphic" in2="BackgroundImageFix" result="shape"/>
<feGaussianBlur stdDeviation="1.5" result="effect1_foregroundBlur_1_3142"/>
</filter>
<filter id="filter3_i_1_3142" x="26.4016" y="72.4883" width="8.70853" height="13.1901" filterUnits="userSpaceOnUse" color-interpolation-filters="sRGB">
<feFlood flood-opacity="0" result="BackgroundImageFix"/>
<feBlend mode="normal" in="SourceGraphic" in2="BackgroundImageFix" result="shape"/>
<feColorMatrix in="SourceAlpha" type="matrix" values="0 0 0 0 0 0 0 0 0 0 0 0 0 0 0 0 0 0 127 0" result="hardAlpha"/>
<feOffset dx="-1" dy="-1"/>
<feGaussianBlur stdDeviation="1"/>
<feComposite in2="hardAlpha" operator="arithmetic" k2="-1" k3="1"/>
<feColorMatrix type="matrix" values="0 0 0 0 1 0 0 0 0 1 0 0 0 0 1 0 0 0 0.4 0"/>
<feBlend mode="normal" in2="shape" result="effect1_innerShadow_1_3142"/>
</filter>
<filter id="filter4_i_1_3142" x="38.5902" y="26.2416" width="8.70853" height="13.1901" filterUnits="userSpaceOnUse" color-interpolation-filters="sRGB">
<feFlood flood-opacity="0" result="BackgroundImageFix"/>
<feBlend mode="normal" in="SourceGraphic" in2="BackgroundImageFix" result="shape"/>
<feColorMatrix in="SourceAlpha" type="matrix" values="0 0 0 0 0 0 0 0 0 0 0 0 0 0 0 0 0 0 127 0" result="hardAlpha"/>
<feOffset dx="-1" dy="-1"/>
<feGaussianBlur stdDeviation="1"/>
<feComposite in2="hardAlpha" operator="arithmetic" k2="-1" k3="1"/>
<feColorMatrix type="matrix" values="0 0 0 0 1 0 0 0 0 1 0 0 0 0 1 0 0 0 0.4 0"/>
<feBlend mode="normal" in2="shape" result="effect1_innerShadow_1_3142"/>
</filter>
<filter id="filter5_i_1_3142" x="45.9729" y="52.9169" width="8.70853" height="13.1901" filterUnits="userSpaceOnUse" color-interpolation-filters="sRGB">
<feFlood flood-opacity="0" result="BackgroundImageFix"/>
<feBlend mode="normal" in="SourceGraphic" in2="BackgroundImageFix" result="shape"/>
<feColorMatrix in="SourceAlpha" type="matrix" values="0 0 0 0 0 0 0 0 0 0 0 0 0 0 0 0 0 0 127 0" result="hardAlpha"/>
<feOffset dx="-1" dy="-1"/>
<feGaussianBlur stdDeviation="1"/>
<feComposite in2="hardAlpha" operator="arithmetic" k2="-1" k3="1"/>
<feColorMatrix type="matrix" values="0 0 0 0 1 0 0 0 0 1 0 0 0 0 1 0 0 0 0.4 0"/>
<feBlend mode="normal" in2="shape" result="effect1_innerShadow_1_3142"/>
</filter>
<filter id="filter6_i_1_3142" x="19.0189" y="45.813" width="8.70853" height="13.1901" filterUnits="userSpaceOnUse" color-interpolation-filters="sRGB">
<feFlood flood-opacity="0" result="BackgroundImageFix"/>
<feBlend mode="normal" in="SourceGraphic" in2="BackgroundImageFix" result="shape"/>
<feColorMatrix in="SourceAlpha" type="matrix" values="0 0 0 0 0 0 0 0 0 0 0 0 0 0 0 0 0 0 127 0" result="hardAlpha"/>
<feOffset dx="-1" dy="-1"/>
<feGaussianBlur stdDeviation="1"/>
<feComposite in2="hardAlpha" operator="arithmetic" k2="-1" k3="1"/>
<feColorMatrix type="matrix" values="0 0 0 0 1 0 0 0 0 1 0 0 0 0 1 0 0 0 0.4 0"/>
<feBlend mode="normal" in2="shape" result="effect1_innerShadow_1_3142"/>
</filter>
<filter id="filter7_i_1_3142" x="74.3438" y="39.0612" width="11.7864" height="11.8113" filterUnits="userSpaceOnUse" color-interpolation-filters="sRGB">
<feFlood flood-opacity="0" result="BackgroundImageFix"/>
<feBlend mode="normal" in="SourceGraphic" in2="BackgroundImageFix" result="shape"/>
<feColorMatrix in="SourceAlpha" type="matrix" values="0 0 0 0 0 0 0 0 0 0 0 0 0 0 0 0 0 0 127 0" result="hardAlpha"/>
<feOffset dx="-2" dy="-2"/>
<feGaussianBlur stdDeviation="2"/>
<feComposite in2="hardAlpha" operator="arithmetic" k2="-1" k3="1"/>
<feColorMatrix type="matrix" values="0 0 0 0 1 0 0 0 0 1 0 0 0 0 1 0 0 0 0.33 0"/>
<feBlend mode="normal" in2="shape" result="effect1_innerShadow_1_3142"/>
</filter>
<filter id="filter8_i_1_3142" x="90.6861" y="55.4834" width="11.7864" height="11.8113" filterUnits="userSpaceOnUse" color-interpolation-filters="sRGB">
<feFlood flood-opacity="0" result="BackgroundImageFix"/>
<feBlend mode="normal" in="SourceGraphic" in2="BackgroundImageFix" result="shape"/>
<feColorMatrix in="SourceAlpha" type="matrix" values="0 0 0 0 0 0 0 0 0 0 0 0 0 0 0 0 0 0 127 0" result="hardAlpha"/>
<feOffset dx="-2" dy="-2"/>
<feGaussianBlur stdDeviation="2"/>
<feComposite in2="hardAlpha" operator="arithmetic" k2="-1" k3="1"/>
<feColorMatrix type="matrix" values="0 0 0 0 1 0 0 0 0 1 0 0 0 0 1 0 0 0 0.33 0"/>
<feBlend mode="normal" in2="shape" result="effect1_innerShadow_1_3142"/>
</filter>
<filter id="filter9_i_1_3142" x="58.0016" y="22.6389" width="11.7864" height="11.8113" filterUnits="userSpaceOnUse" color-interpolation-filters="sRGB">
<feFlood flood-opacity="0" result="BackgroundImageFix"/>
<feBlend mode="normal" in="SourceGraphic" in2="BackgroundImageFix" result="shape"/>
<feColorMatrix in="SourceAlpha" type="matrix" values="0 0 0 0 0 0 0 0 0 0 0 0 0 0 0 0 0 0 127 0" result="hardAlpha"/>
<feOffset dx="-2" dy="-2"/>
<feGaussianBlur stdDeviation="2"/>
<feComposite in2="hardAlpha" operator="arithmetic" k2="-1" k3="1"/>
<feColorMatrix type="matrix" values="0 0 0 0 1 0 0 0 0 1 0 0 0 0 1 0 0 0 0.33 0"/>
<feBlend mode="normal" in2="shape" result="effect1_innerShadow_1_3142"/>
</filter>
<filter id="filter10_i_1_3142" x="65.524" y="95.2538" width="11.9896" height="7.91345" filterUnits="userSpaceOnUse" color-interpolation-filters="sRGB">
<feFlood flood-opacity="0" result="BackgroundImageFix"/>
<feBlend mode="normal" in="SourceGraphic" in2="BackgroundImageFix" result="shape"/>
<feColorMatrix in="SourceAlpha" type="matrix" values="0 0 0 0 0 0 0 0 0 0 0 0 0 0 0 0 0 0 127 0" result="hardAlpha"/>
<feOffset dx="-1" dy="-1"/>
<feGaussianBlur stdDeviation="1"/>
<feComposite in2="hardAlpha" operator="arithmetic" k2="-1" k3="1"/>
<feColorMatrix type="matrix" values="0 0 0 0 1 0 0 0 0 1 0 0 0 0 1 0 0 0 0.4 0"/>
<feBlend mode="normal" in2="shape" result="effect1_innerShadow_1_3142"/>
</filter>
<filter id="filter11_i_1_3142" x="59.0757" y="71.1886" width="11.9896" height="7.91345" filterUnits="userSpaceOnUse" color-interpolation-filters="sRGB">
<feFlood flood-opacity="0" result="BackgroundImageFix"/>
<feBlend mode="normal" in="SourceGraphic" in2="BackgroundImageFix" result="shape"/>
<feColorMatrix in="SourceAlpha" type="matrix" values="0 0 0 0 0 0 0 0 0 0 0 0 0 0 0 0 0 0 127 0" result="hardAlpha"/>
<feOffset dx="-1" dy="-1"/>
<feGaussianBlur stdDeviation="1"/>
<feComposite in2="hardAlpha" operator="arithmetic" k2="-1" k3="1"/>
<feColorMatrix type="matrix" values="0 0 0 0 1 0 0 0 0 1 0 0 0 0 1 0 0 0 0.4 0"/>
<feBlend mode="normal" in2="shape" result="effect1_innerShadow_1_3142"/>
</filter>
<linearGradient id="paint0_linear_1_3142" x1="49.0536" y1="13.6624" x2="74.9355" y2="110.255" gradientUnits="userSpaceOnUse">
<stop stop-color="#BAEAFC"/>
<stop offset="1" stop-color="#FEC794"/>
</linearGradient>
<linearGradient id="paint1_linear_1_3142" x1="65.6273" y1="83.2437" x2="48.2382" y2="58.9154" gradientUnits="userSpaceOnUse">
<stop stop-color="#AEF0FF"/>
<stop offset="1" stop-color="white"/>
</linearGradient>
<linearGradient id="paint2_linear_1_3142" x1="79.9485" y1="121.773" x2="87.3043" y2="99.4423" gradientUnits="userSpaceOnUse">
<stop stop-color="#AEF0FF"/>
<stop offset="1" stop-color="white"/>
</linearGradient>
<linearGradient id="paint3_linear_1_3142" x1="50.7315" y1="64.0946" x2="56.8526" y2="114.016" gradientUnits="userSpaceOnUse">
<stop stop-color="#84BFE2"/>
<stop offset="1" stop-color="#87DBFD"/>
</linearGradient>
</defs>
</svg>
