<svg width="124" height="124" viewBox="0 0 124 124" fill="none" xmlns="http://www.w3.org/2000/svg">
<path d="M66.0235 16.0533C71.545 14.5738 77.4364 16.1524 81.4783 20.1944L103.77 42.4858C107.812 46.5278 109.39 52.4191 107.911 57.9406L99.7516 88.3912C98.2722 93.9126 93.9594 98.2254 88.4379 99.7049L57.9873 107.864C52.4658 109.344 46.5745 107.765 42.5325 103.723L20.2411 81.4316C16.1991 77.3896 14.6205 71.4983 16.1 65.9768L24.2592 35.5262C25.7387 30.0047 30.0515 25.6919 35.5729 24.2125L66.0235 16.0533Z" fill="url(#paint0_linear_1_3127)"/>
<g filter="url(#filter0_f_1_3127)">
<path d="M25.2525 36.847C26.7345 31.3158 31.0596 26.9984 36.5934 25.526L65.5564 17.8202C68.5291 17.0293 71.2447 19.7497 70.4486 22.721L61.7456 55.2008C60.2354 60.837 55.7767 65.2042 50.1103 66.5971L23.1779 73.2177C19.4849 74.1255 16.1704 70.7416 17.1547 67.0681L25.2525 36.847Z" fill="#FEBE9F"/>
</g>
<g filter="url(#filter1_f_1_3127)">
<path d="M52.1565 68.6766C57.522 67.3316 63.2016 68.8535 67.1758 72.701L88.4674 93.3138C90.1388 94.9319 89.4123 97.7542 87.1674 98.3642L57.3724 106.461C52.5115 107.782 47.3158 106.389 43.7667 102.815L22.0117 80.9058C20.3725 79.255 21.1546 76.4476 23.4111 75.882L52.1565 68.6766Z" fill="url(#paint1_linear_1_3127)"/>
</g>
<g filter="url(#filter2_f_1_3127)">
<path d="M74.3123 23.7563C75.1084 20.785 78.8205 19.7869 80.9994 21.9581L102.229 43.1131C106.285 47.1551 107.872 53.0566 106.39 58.5878L97.8548 90.4426C97.0673 93.3814 93.4174 94.4 91.222 92.2939L69.9877 71.9232C65.7769 67.8837 64.0991 61.8723 65.6093 56.2361L74.3123 23.7563Z" fill="url(#paint2_linear_1_3127)"/>
<path d="M74.3123 23.7563C75.1084 20.785 78.8205 19.7869 80.9994 21.9581L102.229 43.1131C106.285 47.1551 107.872 53.0566 106.39 58.5878L97.8548 90.4426C97.0673 93.3814 93.4174 94.4 91.222 92.2939L69.9877 71.9232C65.7769 67.8837 64.0991 61.8723 65.6093 56.2361L74.3123 23.7563Z" fill="url(#paint3_linear_1_3127)"/>
</g>
<g filter="url(#filter3_i_1_3127)">
<circle cx="5.0986" cy="5.0986" r="5.0986" transform="matrix(0.965926 -0.258819 -0.250887 0.968016 26.6012 56.1154)" fill="#181A20"/>
</g>
<g filter="url(#filter4_i_1_3127)">
<circle cx="5.0986" cy="5.0986" r="5.0986" transform="matrix(0.965926 -0.258819 -0.250887 0.968016 52.6729 27.3674)" fill="#181A20"/>
</g>
<g filter="url(#filter5_i_1_3127)">
<circle cx="4.8982" cy="4.8982" r="4.8982" transform="matrix(0.69779 0.716302 -0.250887 0.968016 84.4768 49.4803)" fill="#181A20"/>
</g>
<g filter="url(#filter6_i_1_3127)">
<circle cx="4.8982" cy="4.8982" r="4.8982" transform="matrix(0.69779 0.716302 -0.250887 0.968016 71.8641 52.8269)" fill="#181A20"/>
</g>
<g filter="url(#filter7_i_1_3127)">
<circle cx="4.8982" cy="4.8982" r="4.8982" transform="matrix(0.69779 0.716302 -0.250887 0.968016 97.0896 46.1338)" fill="#181A20"/>
</g>
<g filter="url(#filter8_i_1_3127)">
<circle cx="4.58973" cy="4.58973" r="4.58973" transform="matrix(0.707133 0.70708 -0.965936 0.258783 56.3114 83.2091)" fill="#181A20"/>
</g>
<defs>
<filter id="filter0_f_1_3127" x="13.9793" y="14.6815" width="59.6098" height="61.6853" filterUnits="userSpaceOnUse" color-interpolation-filters="sRGB">
<feFlood flood-opacity="0" result="BackgroundImageFix"/>
<feBlend mode="normal" in="SourceGraphic" in2="BackgroundImageFix" result="shape"/>
<feGaussianBlur stdDeviation="1.5" result="effect1_foregroundBlur_1_3127"/>
</filter>
<filter id="filter1_f_1_3127" x="18.1385" y="65.1962" width="74.244" height="44.7549" filterUnits="userSpaceOnUse" color-interpolation-filters="sRGB">
<feFlood flood-opacity="0" result="BackgroundImageFix"/>
<feBlend mode="normal" in="SourceGraphic" in2="BackgroundImageFix" result="shape"/>
<feGaussianBlur stdDeviation="1.5" result="effect1_foregroundBlur_1_3127"/>
</filter>
<filter id="filter2_f_1_3127" x="62.0637" y="17.7891" width="47.8721" height="78.6207" filterUnits="userSpaceOnUse" color-interpolation-filters="sRGB">
<feFlood flood-opacity="0" result="BackgroundImageFix"/>
<feBlend mode="normal" in="SourceGraphic" in2="BackgroundImageFix" result="shape"/>
<feGaussianBlur stdDeviation="1.5" result="effect1_foregroundBlur_1_3127"/>
</filter>
<filter id="filter3_i_1_3127" x="24.1574" y="53.6211" width="11.179" height="11.2203" filterUnits="userSpaceOnUse" color-interpolation-filters="sRGB">
<feFlood flood-opacity="0" result="BackgroundImageFix"/>
<feBlend mode="normal" in="SourceGraphic" in2="BackgroundImageFix" result="shape"/>
<feColorMatrix in="SourceAlpha" type="matrix" values="0 0 0 0 0 0 0 0 0 0 0 0 0 0 0 0 0 0 127 0" result="hardAlpha"/>
<feOffset dx="-1" dy="-1"/>
<feGaussianBlur stdDeviation="1"/>
<feComposite in2="hardAlpha" operator="arithmetic" k2="-1" k3="1"/>
<feColorMatrix type="matrix" values="0 0 0 0 1 0 0 0 0 1 0 0 0 0 1 0 0 0 0.4 0"/>
<feBlend mode="normal" in2="shape" result="effect1_innerShadow_1_3127"/>
</filter>
<filter id="filter4_i_1_3127" x="50.2291" y="24.8732" width="11.179" height="11.2203" filterUnits="userSpaceOnUse" color-interpolation-filters="sRGB">
<feFlood flood-opacity="0" result="BackgroundImageFix"/>
<feBlend mode="normal" in="SourceGraphic" in2="BackgroundImageFix" result="shape"/>
<feColorMatrix in="SourceAlpha" type="matrix" values="0 0 0 0 0 0 0 0 0 0 0 0 0 0 0 0 0 0 127 0" result="hardAlpha"/>
<feOffset dx="-1" dy="-1"/>
<feGaussianBlur stdDeviation="1"/>
<feComposite in2="hardAlpha" operator="arithmetic" k2="-1" k3="1"/>
<feColorMatrix type="matrix" values="0 0 0 0 1 0 0 0 0 1 0 0 0 0 1 0 0 0 0.4 0"/>
<feBlend mode="normal" in2="shape" result="effect1_innerShadow_1_3127"/>
</filter>
<filter id="filter5_i_1_3127" x="81.0327" y="49.8315" width="9.26624" height="13.7979" filterUnits="userSpaceOnUse" color-interpolation-filters="sRGB">
<feFlood flood-opacity="0" result="BackgroundImageFix"/>
<feBlend mode="normal" in="SourceGraphic" in2="BackgroundImageFix" result="shape"/>
<feColorMatrix in="SourceAlpha" type="matrix" values="0 0 0 0 0 0 0 0 0 0 0 0 0 0 0 0 0 0 127 0" result="hardAlpha"/>
<feOffset dx="-2" dy="-2"/>
<feGaussianBlur stdDeviation="2"/>
<feComposite in2="hardAlpha" operator="arithmetic" k2="-1" k3="1"/>
<feColorMatrix type="matrix" values="0 0 0 0 1 0 0 0 0 1 0 0 0 0 1 0 0 0 0.33 0"/>
<feBlend mode="normal" in2="shape" result="effect1_innerShadow_1_3127"/>
</filter>
<filter id="filter6_i_1_3127" x="68.42" y="53.1781" width="9.26624" height="13.7979" filterUnits="userSpaceOnUse" color-interpolation-filters="sRGB">
<feFlood flood-opacity="0" result="BackgroundImageFix"/>
<feBlend mode="normal" in="SourceGraphic" in2="BackgroundImageFix" result="shape"/>
<feColorMatrix in="SourceAlpha" type="matrix" values="0 0 0 0 0 0 0 0 0 0 0 0 0 0 0 0 0 0 127 0" result="hardAlpha"/>
<feOffset dx="-2" dy="-2"/>
<feGaussianBlur stdDeviation="2"/>
<feComposite in2="hardAlpha" operator="arithmetic" k2="-1" k3="1"/>
<feColorMatrix type="matrix" values="0 0 0 0 1 0 0 0 0 1 0 0 0 0 1 0 0 0 0.33 0"/>
<feBlend mode="normal" in2="shape" result="effect1_innerShadow_1_3127"/>
</filter>
<filter id="filter7_i_1_3127" x="93.6455" y="46.485" width="9.26624" height="13.7979" filterUnits="userSpaceOnUse" color-interpolation-filters="sRGB">
<feFlood flood-opacity="0" result="BackgroundImageFix"/>
<feBlend mode="normal" in="SourceGraphic" in2="BackgroundImageFix" result="shape"/>
<feColorMatrix in="SourceAlpha" type="matrix" values="0 0 0 0 0 0 0 0 0 0 0 0 0 0 0 0 0 0 127 0" result="hardAlpha"/>
<feOffset dx="-2" dy="-2"/>
<feGaussianBlur stdDeviation="2"/>
<feComposite in2="hardAlpha" operator="arithmetic" k2="-1" k3="1"/>
<feColorMatrix type="matrix" values="0 0 0 0 1 0 0 0 0 1 0 0 0 0 1 0 0 0 0.33 0"/>
<feBlend mode="normal" in2="shape" result="effect1_innerShadow_1_3127"/>
</filter>
<filter id="filter8_i_1_3127" x="48.6288" y="83.1854" width="11.9895" height="7.91345" filterUnits="userSpaceOnUse" color-interpolation-filters="sRGB">
<feFlood flood-opacity="0" result="BackgroundImageFix"/>
<feBlend mode="normal" in="SourceGraphic" in2="BackgroundImageFix" result="shape"/>
<feColorMatrix in="SourceAlpha" type="matrix" values="0 0 0 0 0 0 0 0 0 0 0 0 0 0 0 0 0 0 127 0" result="hardAlpha"/>
<feOffset dx="-1" dy="-1"/>
<feGaussianBlur stdDeviation="1"/>
<feComposite in2="hardAlpha" operator="arithmetic" k2="-1" k3="1"/>
<feColorMatrix type="matrix" values="0 0 0 0 1 0 0 0 0 1 0 0 0 0 1 0 0 0 0.4 0"/>
<feBlend mode="normal" in2="shape" result="effect1_innerShadow_1_3127"/>
</filter>
<linearGradient id="paint0_linear_1_3127" x1="74.9464" y1="13.6624" x2="49.0645" y2="110.255" gradientUnits="userSpaceOnUse">
<stop stop-color="#BAEAFC"/>
<stop offset="1" stop-color="#FEC794"/>
</linearGradient>
<linearGradient id="paint1_linear_1_3127" x1="47.6467" y1="122.737" x2="65.1825" y2="107.075" gradientUnits="userSpaceOnUse">
<stop stop-color="#AEF0FF"/>
<stop offset="1" stop-color="white"/>
</linearGradient>
<linearGradient id="paint2_linear_1_3127" x1="97.0097" y1="93.5964" x2="94.1144" y2="63.8329" gradientUnits="userSpaceOnUse">
<stop stop-color="#AEF0FF"/>
<stop offset="1" stop-color="white"/>
</linearGradient>
<linearGradient id="paint3_linear_1_3127" x1="70.5372" y1="37.8452" x2="101.539" y2="76.6927" gradientUnits="userSpaceOnUse">
<stop stop-color="#84BFE2"/>
<stop offset="1" stop-color="#87DBFD"/>
</linearGradient>
</defs>
</svg>
