<svg width="56" height="56" viewBox="0 0 56 56" fill="none" xmlns="http://www.w3.org/2000/svg">
<path d="M-63.7136 -68L-62.2108 -64.5188L-58.4273 -64.1688L-61.2819 -61.6673L-60.4465 -57.9698L-63.7136 -59.905L-66.9808 -57.9698L-66.1454 -61.6673L-69 -64.1688L-65.2165 -64.5188L-63.7136 -68Z" fill="white" fill-opacity="0.1"/>
<path d="M-27.0282 -68L-25.5253 -64.5188L-21.7418 -64.1688L-24.5965 -61.6673L-23.761 -57.9698L-27.0282 -59.905L-30.2953 -57.9698L-29.4599 -61.6673L-32.3145 -64.1688L-28.5311 -64.5188L-27.0282 -68Z" fill="white" fill-opacity="0.1"/>
<path d="M-45.3709 -53.0297L-42.9663 -47.4599L-36.9128 -46.8998L-41.4802 -42.8974L-40.1435 -36.9815L-45.3709 -40.0777L-50.5984 -36.9815L-49.2617 -42.8974L-53.8291 -46.8998L-47.7755 -47.4599L-45.3709 -53.0297Z" fill="white" fill-opacity="0.1"/>
<path d="M-25.5253 -27.9249L-27.0282 -31.406L-28.5311 -27.9249L-32.3145 -27.5748L-29.4599 -25.0733L-30.2953 -21.3759L-27.0282 -23.311L-23.761 -21.3759L-24.5965 -25.0733L-21.7418 -27.5748L-25.5253 -27.9249Z" fill="white" fill-opacity="0.1"/>
<path d="M-62.2108 -27.9249L-63.7136 -31.406L-65.2165 -27.9249L-69 -27.5748L-66.1454 -25.0733L-66.9808 -21.3759L-63.7136 -23.311L-60.4465 -21.3759L-61.2819 -25.0733L-58.4273 -27.5748L-62.2108 -27.9249Z" fill="white" fill-opacity="0.1"/>
<path d="M-8.68546 -53.0297L-6.28084 -47.4599L-0.227295 -46.8998L-4.7947 -42.8974L-3.45802 -36.9815L-8.68546 -40.0777L-13.9129 -36.9815L-12.5762 -42.8974L-17.1436 -46.8998L-11.0901 -47.4599L-8.68546 -53.0297Z" fill="white" fill-opacity="0.1"/>
<path d="M11.1602 -64.5188L9.65726 -68L8.15437 -64.5188L4.37091 -64.1688L7.22554 -61.6673L6.39012 -57.9698L9.65726 -59.905L12.9244 -57.9698L12.089 -61.6673L14.9436 -64.1688L11.1602 -64.5188Z" fill="white" fill-opacity="0.1"/>
<path d="M9.65726 -31.406L11.1602 -27.9249L14.9436 -27.5748L12.089 -25.0733L12.9244 -21.3759L9.65726 -23.311L6.39012 -21.3759L7.22554 -25.0733L4.37091 -27.5748L8.15437 -27.9249L9.65726 -31.406Z" fill="white" fill-opacity="0.1"/>
<path d="M30.4046 -47.4599L28 -53.0297L25.5954 -47.4599L19.5418 -46.8998L24.1092 -42.8974L22.7726 -36.9815L28 -40.0777L33.2274 -36.9815L31.8908 -42.8974L36.4582 -46.8998L30.4046 -47.4599Z" fill="white" fill-opacity="0.1"/>
<path d="M46.3427 -68L47.8456 -64.5188L51.6291 -64.1688L48.7744 -61.6673L49.6099 -57.9698L46.3427 -59.905L43.0756 -57.9698L43.911 -61.6673L41.0564 -64.1688L44.8398 -64.5188L46.3427 -68Z" fill="white" fill-opacity="0.1"/>
<path d="M47.8456 -27.9249L46.3427 -31.406L44.8398 -27.9249L41.0564 -27.5748L43.911 -25.0733L43.0756 -21.3759L46.3427 -23.311L49.6099 -21.3759L48.7744 -25.0733L51.6291 -27.5748L47.8456 -27.9249Z" fill="white" fill-opacity="0.1"/>
<path d="M64.6855 -53.0297L67.0901 -47.4599L73.1436 -46.8998L68.5762 -42.8974L69.9129 -36.9815L64.6855 -40.0777L59.458 -36.9815L60.7947 -42.8974L56.2273 -46.8998L62.2808 -47.4599L64.6855 -53.0297Z" fill="white" fill-opacity="0.1"/>
<path d="M84.5311 -64.5188L83.0282 -68L81.5253 -64.5188L77.7418 -64.1688L80.5965 -61.6673L79.761 -57.9698L83.0282 -59.905L86.2953 -57.9698L85.4599 -61.6673L88.3145 -64.1688L84.5311 -64.5188Z" fill="white" fill-opacity="0.1"/>
<path d="M83.0282 -31.406L84.5311 -27.9249L88.3145 -27.5748L85.4599 -25.0733L86.2953 -21.3759L83.0282 -23.311L79.761 -21.3759L80.5965 -25.0733L77.7418 -27.5748L81.5253 -27.9249L83.0282 -31.406Z" fill="white" fill-opacity="0.1"/>
<path d="M103.776 -47.4599L101.371 -53.0297L98.9663 -47.4599L92.9127 -46.8998L97.4801 -42.8974L96.1435 -36.9815L101.371 -40.0777L106.598 -36.9815L105.262 -42.8974L109.829 -46.8998L103.776 -47.4599Z" fill="white" fill-opacity="0.1"/>
<path d="M119.714 -68L121.217 -64.5188L125 -64.1688L122.145 -61.6673L122.981 -57.9698L119.714 -59.905L116.446 -57.9698L117.282 -61.6673L114.427 -64.1688L118.211 -64.5188L119.714 -68Z" fill="white" fill-opacity="0.1"/>
<path d="M121.217 -27.9249L119.714 -31.406L118.211 -27.9249L114.427 -27.5748L117.282 -25.0733L116.446 -21.3759L119.714 -23.311L122.981 -21.3759L122.145 -25.0733L125 -27.5748L121.217 -27.9249Z" fill="white" fill-opacity="0.1"/>
<path d="M-45.3709 -16.4358L-42.9663 -10.8659L-36.9128 -10.3059L-41.4802 -6.30348L-40.1435 -0.387505L-45.3709 -3.48373L-50.5984 -0.387505L-49.2617 -6.30348L-53.8291 -10.3059L-47.7755 -10.8659L-45.3709 -16.4358Z" fill="white" fill-opacity="0.1"/>
<path d="M-27.0282 5.18793L-25.5253 8.66909L-21.7418 9.01912L-24.5965 11.5206L-23.761 15.2181L-27.0282 13.283L-30.2953 15.2181L-29.4599 11.5206L-32.3145 9.01912L-28.5311 8.66909L-27.0282 5.18793Z" fill="white" fill-opacity="0.1"/>
<path d="M-63.7136 5.18793L-62.2108 8.66909L-58.4273 9.01912L-61.2819 11.5206L-60.4465 15.2181L-63.7136 13.283L-66.9808 15.2181L-66.1454 11.5206L-69 9.01912L-65.2165 8.66909L-63.7136 5.18793Z" fill="white" fill-opacity="0.1"/>
<path d="M-6.28084 -10.8659L-8.68546 -16.4358L-11.0901 -10.8659L-17.1436 -10.3059L-12.5762 -6.30348L-13.9129 -0.387505L-8.68546 -3.48373L-3.45802 -0.387505L-4.7947 -6.30348L-0.227295 -10.3059L-6.28084 -10.8659Z" fill="white" fill-opacity="0.1"/>
<path d="M11.1602 8.66909L9.65726 5.18793L8.15437 8.66909L4.37091 9.01912L7.22554 11.5206L6.39012 15.2181L9.65726 13.283L12.9244 15.2181L12.089 11.5206L14.9436 9.01912L11.1602 8.66909Z" fill="white" fill-opacity="0.1"/>
<path d="M28 -16.4358L30.4046 -10.8659L36.4582 -10.3059L31.8908 -6.30348L33.2274 -0.387505L28 -3.48373L22.7726 -0.387505L24.1092 -6.30348L19.5418 -10.3059L25.5954 -10.8659L28 -16.4358Z" fill="white" fill-opacity="0.1"/>
<path d="M46.3427 5.18793L47.8456 8.66909L51.6291 9.01912L48.7744 11.5206L49.6099 15.2181L46.3427 13.283L43.0756 15.2181L43.911 11.5206L41.0564 9.01912L44.8398 8.66909L46.3427 5.18793Z" fill="white" fill-opacity="0.1"/>
<path d="M67.0901 -10.8659L64.6855 -16.4358L62.2808 -10.8659L56.2273 -10.3059L60.7947 -6.30348L59.458 -0.387505L64.6855 -3.48373L69.9129 -0.387505L68.5762 -6.30348L73.1436 -10.3059L67.0901 -10.8659Z" fill="white" fill-opacity="0.1"/>
<path d="M84.5311 8.66909L83.0282 5.18793L81.5253 8.66909L77.7418 9.01912L80.5965 11.5206L79.761 15.2181L83.0282 13.283L86.2953 15.2181L85.4599 11.5206L88.3145 9.01912L84.5311 8.66909Z" fill="white" fill-opacity="0.1"/>
<path d="M101.371 -16.4358L103.776 -10.8659L109.829 -10.3059L105.262 -6.30348L106.598 -0.387505L101.371 -3.48373L96.1435 -0.387505L97.4801 -6.30348L92.9127 -10.3059L98.9663 -10.8659L101.371 -16.4358Z" fill="white" fill-opacity="0.1"/>
<path d="M119.714 5.18793L121.217 8.66909L125 9.01912L122.145 11.5206L122.981 15.2181L119.714 13.283L116.446 15.2181L117.282 11.5206L114.427 9.01912L118.211 8.66909L119.714 5.18793Z" fill="white" fill-opacity="0.1"/>
<path d="M-42.9663 25.728L-45.3709 20.1582L-47.7755 25.728L-53.8291 26.2881L-49.2617 30.2905L-50.5984 36.2065L-45.3709 33.1102L-40.1435 36.2065L-41.4802 30.2905L-36.9128 26.2881L-42.9663 25.728Z" fill="white" fill-opacity="0.1"/>
<path d="M-25.5253 45.2631L-27.0282 41.7819L-28.5311 45.2631L-32.3145 45.6131L-29.4599 48.1146L-30.2953 51.8121L-27.0282 49.8769L-23.761 51.8121L-24.5965 48.1146L-21.7418 45.6131L-25.5253 45.2631Z" fill="white" fill-opacity="0.1"/>
<path d="M-62.2108 45.2631L-63.7136 41.7819L-65.2165 45.2631L-69 45.6131L-66.1454 48.1146L-66.9808 51.8121L-63.7136 49.8769L-60.4465 51.8121L-61.2819 48.1146L-58.4273 45.6131L-62.2108 45.2631Z" fill="white" fill-opacity="0.1"/>
<path d="M-8.68546 20.1582L-6.28084 25.728L-0.227295 26.2881L-4.7947 30.2905L-3.45802 36.2065L-8.68546 33.1102L-13.9129 36.2065L-12.5762 30.2905L-17.1436 26.2881L-11.0901 25.728L-8.68546 20.1582Z" fill="white" fill-opacity="0.1"/>
<path d="M9.65726 41.7819L11.1602 45.2631L14.9436 45.6131L12.089 48.1146L12.9244 51.8121L9.65726 49.8769L6.39012 51.8121L7.22554 48.1146L4.37091 45.6131L8.15437 45.2631L9.65726 41.7819Z" fill="white" fill-opacity="0.1"/>
<path d="M30.4046 25.728L28 20.1582L25.5954 25.728L19.5418 26.2881L24.1092 30.2905L22.7726 36.2065L28 33.1102L33.2274 36.2065L31.8908 30.2905L36.4582 26.2881L30.4046 25.728Z" fill="white" fill-opacity="0.1"/>
<path d="M47.8456 45.2631L46.3427 41.7819L44.8398 45.2631L41.0564 45.6131L43.911 48.1146L43.0756 51.8121L46.3427 49.8769L49.6099 51.8121L48.7744 48.1146L51.6291 45.6131L47.8456 45.2631Z" fill="white" fill-opacity="0.1"/>
<path d="M64.6855 20.1582L67.0901 25.728L73.1436 26.2881L68.5762 30.2905L69.9129 36.2065L64.6855 33.1102L59.458 36.2065L60.7947 30.2905L56.2273 26.2881L62.2808 25.728L64.6855 20.1582Z" fill="white" fill-opacity="0.1"/>
<path d="M83.0282 41.7819L84.5311 45.2631L88.3145 45.6131L85.4599 48.1146L86.2953 51.8121L83.0282 49.8769L79.761 51.8121L80.5965 48.1146L77.7418 45.6131L81.5253 45.2631L83.0282 41.7819Z" fill="white" fill-opacity="0.1"/>
<path d="M103.776 25.728L101.371 20.1582L98.9663 25.728L92.9127 26.2881L97.4801 30.2905L96.1435 36.2065L101.371 33.1102L106.598 36.2065L105.262 30.2905L109.829 26.2881L103.776 25.728Z" fill="white" fill-opacity="0.1"/>
<path d="M121.217 45.2631L119.714 41.7819L118.211 45.2631L114.427 45.6131L117.282 48.1146L116.446 51.8121L119.714 49.8769L122.981 51.8121L122.145 48.1146L125 45.6131L121.217 45.2631Z" fill="white" fill-opacity="0.1"/>
<path d="M-45.3709 56.7522L-42.9663 62.322L-36.9128 62.8821L-41.4802 66.8845L-40.1435 72.8004L-45.3709 69.7042L-50.5984 72.8004L-49.2617 66.8845L-53.8291 62.8821L-47.7755 62.322L-45.3709 56.7522Z" fill="white" fill-opacity="0.1"/>
<path d="M-27.0282 78.3759L-25.5253 81.857L-21.7418 82.207L-24.5965 84.7086L-23.761 88.406L-27.0282 86.4709L-30.2953 88.406L-29.4599 84.7086L-32.3145 82.207L-28.5311 81.857L-27.0282 78.3759Z" fill="white" fill-opacity="0.1"/>
<path d="M-63.7136 78.3759L-62.2108 81.857L-58.4273 82.207L-61.2819 84.7086L-60.4465 88.406L-63.7136 86.4709L-66.9808 88.406L-66.1454 84.7086L-69 82.207L-65.2165 81.857L-63.7136 78.3759Z" fill="white" fill-opacity="0.1"/>
<path d="M-6.28084 62.322L-8.68546 56.7522L-11.0901 62.322L-17.1436 62.8821L-12.5762 66.8845L-13.9129 72.8004L-8.68546 69.7042L-3.45802 72.8004L-4.7947 66.8845L-0.227295 62.8821L-6.28084 62.322Z" fill="white" fill-opacity="0.1"/>
<path d="M11.1602 81.857L9.65726 78.3759L8.15437 81.857L4.37091 82.207L7.22554 84.7086L6.39012 88.406L9.65726 86.4709L12.9244 88.406L12.089 84.7086L14.9436 82.207L11.1602 81.857Z" fill="white" fill-opacity="0.1"/>
<path d="M28 56.7522L30.4046 62.322L36.4582 62.8821L31.8908 66.8845L33.2274 72.8004L28 69.7042L22.7726 72.8004L24.1092 66.8845L19.5418 62.8821L25.5954 62.322L28 56.7522Z" fill="white" fill-opacity="0.1"/>
<path d="M46.3427 78.3759L47.8456 81.857L51.6291 82.207L48.7744 84.7086L49.6099 88.406L46.3427 86.4709L43.0756 88.406L43.911 84.7086L41.0564 82.207L44.8398 81.857L46.3427 78.3759Z" fill="white" fill-opacity="0.1"/>
<path d="M67.0901 62.322L64.6855 56.7522L62.2808 62.322L56.2273 62.8821L60.7947 66.8845L59.458 72.8004L64.6855 69.7042L69.9129 72.8004L68.5762 66.8845L73.1436 62.8821L67.0901 62.322Z" fill="white" fill-opacity="0.1"/>
<path d="M84.5311 81.857L83.0282 78.3759L81.5253 81.857L77.7418 82.207L80.5965 84.7086L79.761 88.406L83.0282 86.4709L86.2953 88.406L85.4599 84.7086L88.3145 82.207L84.5311 81.857Z" fill="white" fill-opacity="0.1"/>
<path d="M101.371 56.7522L103.776 62.322L109.829 62.8821L105.262 66.8845L106.598 72.8004L101.371 69.7042L96.1435 72.8004L97.4801 66.8845L92.9127 62.8821L98.9663 62.322L101.371 56.7522Z" fill="white" fill-opacity="0.1"/>
<path d="M119.714 78.3759L121.217 81.857L125 82.207L122.145 84.7086L122.981 88.406L119.714 86.4709L116.446 88.406L117.282 84.7086L114.427 82.207L118.211 81.857L119.714 78.3759Z" fill="white" fill-opacity="0.1"/>
<path d="M-42.9663 98.916L-45.3709 93.3461L-47.7755 98.916L-53.8291 99.476L-49.2617 103.478L-50.5984 109.394L-45.3709 106.298L-40.1435 109.394L-41.4802 103.478L-36.9128 99.476L-42.9663 98.916Z" fill="white" fill-opacity="0.1"/>
<path d="M-25.5253 118.451L-27.0282 114.97L-28.5311 118.451L-32.3145 118.801L-29.4599 121.303L-30.2953 125L-27.0282 123.065L-23.761 125L-24.5965 121.303L-21.7418 118.801L-25.5253 118.451Z" fill="white" fill-opacity="0.1"/>
<path d="M-62.2108 118.451L-63.7136 114.97L-65.2165 118.451L-69 118.801L-66.1454 121.303L-66.9808 125L-63.7136 123.065L-60.4465 125L-61.2819 121.303L-58.4273 118.801L-62.2108 118.451Z" fill="white" fill-opacity="0.1"/>
<path d="M-8.68546 93.3461L-6.28084 98.916L-0.227295 99.476L-4.7947 103.478L-3.45802 109.394L-8.68546 106.298L-13.9129 109.394L-12.5762 103.478L-17.1436 99.476L-11.0901 98.916L-8.68546 93.3461Z" fill="white" fill-opacity="0.1"/>
<path d="M9.65726 114.97L11.1602 118.451L14.9436 118.801L12.089 121.303L12.9244 125L9.65726 123.065L6.39012 125L7.22554 121.303L4.37091 118.801L8.15437 118.451L9.65726 114.97Z" fill="white" fill-opacity="0.1"/>
<path d="M30.4046 98.916L28 93.3461L25.5954 98.916L19.5418 99.476L24.1092 103.478L22.7726 109.394L28 106.298L33.2274 109.394L31.8908 103.478L36.4582 99.476L30.4046 98.916Z" fill="white" fill-opacity="0.1"/>
<path d="M47.8456 118.451L46.3427 114.97L44.8398 118.451L41.0564 118.801L43.911 121.303L43.0756 125L46.3427 123.065L49.6099 125L48.7744 121.303L51.6291 118.801L47.8456 118.451Z" fill="white" fill-opacity="0.1"/>
<path d="M64.6855 93.3461L67.0901 98.916L73.1436 99.476L68.5762 103.478L69.9129 109.394L64.6855 106.298L59.458 109.394L60.7947 103.478L56.2273 99.476L62.2808 98.916L64.6855 93.3461Z" fill="white" fill-opacity="0.1"/>
<path d="M83.0282 114.97L84.5311 118.451L88.3145 118.801L85.4599 121.303L86.2953 125L83.0282 123.065L79.761 125L80.5965 121.303L77.7418 118.801L81.5253 118.451L83.0282 114.97Z" fill="white" fill-opacity="0.1"/>
<path d="M103.776 98.916L101.371 93.3461L98.9663 98.916L92.9127 99.476L97.4801 103.478L96.1435 109.394L101.371 106.298L106.598 109.394L105.262 103.478L109.829 99.476L103.776 98.916Z" fill="white" fill-opacity="0.1"/>
<path d="M121.217 118.451L119.714 114.97L118.211 118.451L114.427 118.801L117.282 121.303L116.446 125L119.714 123.065L122.981 125L122.145 121.303L125 118.801L121.217 118.451Z" fill="white" fill-opacity="0.1"/>
</svg>
