<svg width="428" height="436" viewBox="0 0 428 436" fill="none" xmlns="http://www.w3.org/2000/svg">
<path d="M4.10436 -8L7.54557 -0.00915384L16.2087 0.79433L9.67236 6.53643L11.5853 15.0239L4.10436 10.5818L-3.37655 15.0239L-1.46365 6.53643L-8 0.79433L0.66314 -0.00915384L4.10436 -8Z" fill="url(#paint0_linear_1_1907)"/>
<path d="M88.1044 -8L91.5456 -0.00915384L100.209 0.79433L93.6724 6.53643L95.5853 15.0239L88.1044 10.5818L80.6235 15.0239L82.5364 6.53643L76 0.79433L84.6631 -0.00915384L88.1044 -8Z" fill="url(#paint1_linear_1_1907)"/>
<path d="M46.1044 26.3636L51.6103 39.149L65.4713 40.4346L55.0132 49.6219L58.0738 63.2018L46.1044 56.0945L34.1349 63.2018L37.1955 49.6219L26.7374 40.4346L40.5984 39.149L46.1044 26.3636Z" fill="url(#paint2_linear_1_1907)"/>
<path d="M91.5456 83.9908L88.1044 76L84.6631 83.9908L76 84.7943L82.5364 90.5364L80.6235 99.0238L88.1044 94.5818L95.5853 99.0238L93.6724 90.5364L100.209 84.7943L91.5456 83.9908Z" fill="url(#paint3_linear_1_1907)"/>
<path d="M7.54557 83.9908L4.10436 76L0.66314 83.9908L-8 84.7943L-1.46365 90.5364L-3.37655 99.0238L4.10436 94.5818L11.5853 99.0238L9.67236 90.5364L16.2087 84.7943L7.54557 83.9908Z" fill="url(#paint4_linear_1_1907)"/>
<path d="M130.104 26.3636L135.61 39.149L149.471 40.4346L139.013 49.6219L142.074 63.2018L130.104 56.0945L118.135 63.2018L121.196 49.6219L110.737 40.4346L124.598 39.149L130.104 26.3636Z" fill="url(#paint5_linear_1_1907)"/>
<path d="M175.546 -0.00915384L172.104 -8L168.663 -0.00915384L160 0.79433L166.536 6.53643L164.623 15.0239L172.104 10.5818L179.585 15.0239L177.672 6.53643L184.209 0.79433L175.546 -0.00915384Z" fill="url(#paint6_linear_1_1907)"/>
<path d="M172.104 76L175.546 83.9908L184.209 84.7943L177.672 90.5364L179.585 99.0238L172.104 94.5818L164.623 99.0238L166.536 90.5364L160 84.7943L168.663 83.9908L172.104 76Z" fill="url(#paint7_linear_1_1907)"/>
<path d="M219.61 39.149L214.104 26.3636L208.598 39.149L194.737 40.4346L205.196 49.6219L202.135 63.2018L214.104 56.0945L226.074 63.2018L223.013 49.6219L233.471 40.4346L219.61 39.149Z" fill="url(#paint8_linear_1_1907)"/>
<path d="M256.104 -8L259.546 -0.00915384L268.209 0.79433L261.672 6.53643L263.585 15.0239L256.104 10.5818L248.623 15.0239L250.536 6.53643L244 0.79433L252.663 -0.00915384L256.104 -8Z" fill="url(#paint9_linear_1_1907)"/>
<path d="M259.546 83.9908L256.104 76L252.663 83.9908L244 84.7943L250.536 90.5364L248.623 99.0238L256.104 94.5818L263.585 99.0238L261.672 90.5364L268.209 84.7943L259.546 83.9908Z" fill="url(#paint10_linear_1_1907)"/>
<path d="M298.104 26.3636L303.61 39.149L317.471 40.4346L307.013 49.6219L310.074 63.2018L298.104 56.0945L286.135 63.2018L289.196 49.6219L278.737 40.4346L292.598 39.149L298.104 26.3636Z" fill="url(#paint11_linear_1_1907)"/>
<path d="M343.546 -0.00915384L340.104 -8L336.663 -0.00915384L328 0.79433L334.536 6.53643L332.623 15.0239L340.104 10.5818L347.585 15.0239L345.672 6.53643L352.209 0.79433L343.546 -0.00915384Z" fill="url(#paint12_linear_1_1907)"/>
<path d="M340.104 76L343.546 83.9908L352.209 84.7943L345.672 90.5364L347.585 99.0238L340.104 94.5818L332.623 99.0238L334.536 90.5364L328 84.7943L336.663 83.9908L340.104 76Z" fill="url(#paint13_linear_1_1907)"/>
<path d="M387.61 39.149L382.104 26.3636L376.598 39.149L362.737 40.4346L373.196 49.6219L370.135 63.2018L382.104 56.0945L394.074 63.2018L391.013 49.6219L401.471 40.4346L387.61 39.149Z" fill="url(#paint14_linear_1_1907)"/>
<path d="M424.104 -8L427.546 -0.00915384L436.209 0.79433L429.672 6.53643L431.585 15.0239L424.104 10.5818L416.623 15.0239L418.536 6.53643L412 0.79433L420.663 -0.00915384L424.104 -8Z" fill="url(#paint15_linear_1_1907)"/>
<path d="M427.546 83.9908L424.104 76L420.663 83.9908L412 84.7943L418.536 90.5364L416.623 99.0238L424.104 94.5818L431.585 99.0238L429.672 90.5364L436.209 84.7943L427.546 83.9908Z" fill="url(#paint16_linear_1_1907)"/>
<path d="M46.1044 110.364L51.6103 123.149L65.4713 124.435L55.0132 133.622L58.0738 147.202L46.1044 140.095L34.1349 147.202L37.1955 133.622L26.7374 124.435L40.5984 123.149L46.1044 110.364Z" fill="url(#paint17_linear_1_1907)"/>
<path d="M88.1044 160L91.5456 167.991L100.209 168.794L93.6724 174.536L95.5853 183.024L88.1044 178.582L80.6235 183.024L82.5364 174.536L76 168.794L84.6631 167.991L88.1044 160Z" fill="url(#paint18_linear_1_1907)"/>
<path d="M4.10436 160L7.54557 167.991L16.2087 168.794L9.67236 174.536L11.5853 183.024L4.10436 178.582L-3.37655 183.024L-1.46365 174.536L-8 168.794L0.66314 167.991L4.10436 160Z" fill="url(#paint19_linear_1_1907)"/>
<path d="M135.61 123.149L130.104 110.364L124.598 123.149L110.737 124.435L121.196 133.622L118.135 147.202L130.104 140.095L142.074 147.202L139.013 133.622L149.471 124.435L135.61 123.149Z" fill="url(#paint20_linear_1_1907)"/>
<path d="M175.546 167.991L172.104 160L168.663 167.991L160 168.794L166.536 174.536L164.623 183.024L172.104 178.582L179.585 183.024L177.672 174.536L184.209 168.794L175.546 167.991Z" fill="url(#paint21_linear_1_1907)"/>
<path d="M214.104 110.364L219.61 123.149L233.471 124.435L223.013 133.622L226.074 147.202L214.104 140.095L202.135 147.202L205.196 133.622L194.737 124.435L208.598 123.149L214.104 110.364Z" fill="url(#paint22_linear_1_1907)"/>
<path d="M256.104 160L259.546 167.991L268.209 168.794L261.672 174.536L263.585 183.024L256.104 178.582L248.623 183.024L250.536 174.536L244 168.794L252.663 167.991L256.104 160Z" fill="url(#paint23_linear_1_1907)"/>
<path d="M303.61 123.149L298.104 110.364L292.598 123.149L278.737 124.435L289.196 133.622L286.135 147.202L298.104 140.095L310.074 147.202L307.013 133.622L317.471 124.435L303.61 123.149Z" fill="url(#paint24_linear_1_1907)"/>
<path d="M343.546 167.991L340.104 160L336.663 167.991L328 168.794L334.536 174.536L332.623 183.024L340.104 178.582L347.585 183.024L345.672 174.536L352.209 168.794L343.546 167.991Z" fill="url(#paint25_linear_1_1907)"/>
<path d="M382.104 110.364L387.61 123.149L401.471 124.435L391.013 133.622L394.074 147.202L382.104 140.095L370.135 147.202L373.196 133.622L362.737 124.435L376.598 123.149L382.104 110.364Z" fill="url(#paint26_linear_1_1907)"/>
<path d="M424.104 160L427.546 167.991L436.209 168.794L429.672 174.536L431.585 183.024L424.104 178.582L416.623 183.024L418.536 174.536L412 168.794L420.663 167.991L424.104 160Z" fill="url(#paint27_linear_1_1907)"/>
<path d="M51.6103 207.149L46.1044 194.364L40.5984 207.149L26.7374 208.435L37.1955 217.622L34.1349 231.202L46.1044 224.095L58.0738 231.202L55.0132 217.622L65.4713 208.435L51.6103 207.149Z" fill="url(#paint28_linear_1_1907)"/>
<path d="M91.5456 251.991L88.1044 244L84.6631 251.991L76 252.794L82.5364 258.536L80.6235 267.024L88.1044 262.582L95.5853 267.024L93.6724 258.536L100.209 252.794L91.5456 251.991Z" fill="url(#paint29_linear_1_1907)"/>
<path d="M7.54557 251.991L4.10436 244L0.66314 251.991L-8 252.794L-1.46365 258.536L-3.37655 267.024L4.10436 262.582L11.5853 267.024L9.67236 258.536L16.2087 252.794L7.54557 251.991Z" fill="url(#paint30_linear_1_1907)"/>
<path d="M130.104 194.364L135.61 207.149L149.471 208.435L139.013 217.622L142.074 231.202L130.104 224.095L118.135 231.202L121.196 217.622L110.737 208.435L124.598 207.149L130.104 194.364Z" fill="url(#paint31_linear_1_1907)"/>
<path d="M172.104 244L175.546 251.991L184.209 252.794L177.672 258.536L179.585 267.024L172.104 262.582L164.623 267.024L166.536 258.536L160 252.794L168.663 251.991L172.104 244Z" fill="url(#paint32_linear_1_1907)"/>
<path d="M219.61 207.149L214.104 194.364L208.598 207.149L194.737 208.435L205.196 217.622L202.135 231.202L214.104 224.095L226.074 231.202L223.013 217.622L233.471 208.435L219.61 207.149Z" fill="url(#paint33_linear_1_1907)"/>
<path d="M259.546 251.991L256.104 244L252.663 251.991L244 252.794L250.536 258.536L248.623 267.024L256.104 262.582L263.585 267.024L261.672 258.536L268.209 252.794L259.546 251.991Z" fill="url(#paint34_linear_1_1907)"/>
<path d="M298.104 194.364L303.61 207.149L317.471 208.435L307.013 217.622L310.074 231.202L298.104 224.095L286.135 231.202L289.196 217.622L278.737 208.435L292.598 207.149L298.104 194.364Z" fill="url(#paint35_linear_1_1907)"/>
<path d="M340.104 244L343.546 251.991L352.209 252.794L345.672 258.536L347.585 267.024L340.104 262.582L332.623 267.024L334.536 258.536L328 252.794L336.663 251.991L340.104 244Z" fill="url(#paint36_linear_1_1907)"/>
<path d="M387.61 207.149L382.104 194.364L376.598 207.149L362.737 208.435L373.196 217.622L370.135 231.202L382.104 224.095L394.074 231.202L391.013 217.622L401.471 208.435L387.61 207.149Z" fill="url(#paint37_linear_1_1907)"/>
<path d="M427.546 251.991L424.104 244L420.663 251.991L412 252.794L418.536 258.536L416.623 267.024L424.104 262.582L431.585 267.024L429.672 258.536L436.209 252.794L427.546 251.991Z" fill="url(#paint38_linear_1_1907)"/>
<path d="M46.1044 278.364L51.6103 291.149L65.4713 292.435L55.0132 301.622L58.0738 315.202L46.1044 308.095L34.1349 315.202L37.1955 301.622L26.7374 292.435L40.5984 291.149L46.1044 278.364Z" fill="url(#paint39_linear_1_1907)"/>
<path d="M88.1044 328L91.5456 335.991L100.209 336.794L93.6724 342.536L95.5853 351.024L88.1044 346.582L80.6235 351.024L82.5364 342.536L76 336.794L84.6631 335.991L88.1044 328Z" fill="url(#paint40_linear_1_1907)"/>
<path d="M4.10436 328L7.54557 335.991L16.2087 336.794L9.67236 342.536L11.5853 351.024L4.10436 346.582L-3.37655 351.024L-1.46365 342.536L-8 336.794L0.66314 335.991L4.10436 328Z" fill="url(#paint41_linear_1_1907)"/>
<path d="M135.61 291.149L130.104 278.364L124.598 291.149L110.737 292.435L121.196 301.622L118.135 315.202L130.104 308.095L142.074 315.202L139.013 301.622L149.471 292.435L135.61 291.149Z" fill="url(#paint42_linear_1_1907)"/>
<path d="M175.546 335.991L172.104 328L168.663 335.991L160 336.794L166.536 342.536L164.623 351.024L172.104 346.582L179.585 351.024L177.672 342.536L184.209 336.794L175.546 335.991Z" fill="url(#paint43_linear_1_1907)"/>
<path d="M214.104 278.364L219.61 291.149L233.471 292.435L223.013 301.622L226.074 315.202L214.104 308.095L202.135 315.202L205.196 301.622L194.737 292.435L208.598 291.149L214.104 278.364Z" fill="url(#paint44_linear_1_1907)"/>
<path d="M256.104 328L259.546 335.991L268.209 336.794L261.672 342.536L263.585 351.024L256.104 346.582L248.623 351.024L250.536 342.536L244 336.794L252.663 335.991L256.104 328Z" fill="url(#paint45_linear_1_1907)"/>
<path d="M303.61 291.149L298.104 278.364L292.598 291.149L278.737 292.435L289.196 301.622L286.135 315.202L298.104 308.095L310.074 315.202L307.013 301.622L317.471 292.435L303.61 291.149Z" fill="url(#paint46_linear_1_1907)"/>
<path d="M343.546 335.991L340.104 328L336.663 335.991L328 336.794L334.536 342.536L332.623 351.024L340.104 346.582L347.585 351.024L345.672 342.536L352.209 336.794L343.546 335.991Z" fill="url(#paint47_linear_1_1907)"/>
<path d="M382.104 278.364L387.61 291.149L401.471 292.435L391.013 301.622L394.074 315.202L382.104 308.095L370.135 315.202L373.196 301.622L362.737 292.435L376.598 291.149L382.104 278.364Z" fill="url(#paint48_linear_1_1907)"/>
<path d="M424.104 328L427.546 335.991L436.209 336.794L429.672 342.536L431.585 351.024L424.104 346.582L416.623 351.024L418.536 342.536L412 336.794L420.663 335.991L424.104 328Z" fill="url(#paint49_linear_1_1907)"/>
<path d="M51.6103 375.149L46.1044 362.364L40.5984 375.149L26.7374 376.435L37.1955 385.622L34.1349 399.202L46.1044 392.095L58.0738 399.202L55.0132 385.622L65.4713 376.435L51.6103 375.149Z" fill="url(#paint50_linear_1_1907)"/>
<path d="M91.5456 419.991L88.1044 412L84.6631 419.991L76 420.794L82.5364 426.536L80.6235 435.024L88.1044 430.582L95.5853 435.024L93.6724 426.536L100.209 420.794L91.5456 419.991Z" fill="url(#paint51_linear_1_1907)"/>
<path d="M7.54557 419.991L4.10436 412L0.66314 419.991L-8 420.794L-1.46365 426.536L-3.37655 435.024L4.10436 430.582L11.5853 435.024L9.67236 426.536L16.2087 420.794L7.54557 419.991Z" fill="url(#paint52_linear_1_1907)"/>
<path d="M130.104 362.364L135.61 375.149L149.471 376.435L139.013 385.622L142.074 399.202L130.104 392.095L118.135 399.202L121.196 385.622L110.737 376.435L124.598 375.149L130.104 362.364Z" fill="url(#paint53_linear_1_1907)"/>
<path d="M172.104 412L175.546 419.991L184.209 420.794L177.672 426.536L179.585 435.024L172.104 430.582L164.623 435.024L166.536 426.536L160 420.794L168.663 419.991L172.104 412Z" fill="url(#paint54_linear_1_1907)"/>
<path d="M219.61 375.149L214.104 362.364L208.598 375.149L194.737 376.435L205.196 385.622L202.135 399.202L214.104 392.095L226.074 399.202L223.013 385.622L233.471 376.435L219.61 375.149Z" fill="url(#paint55_linear_1_1907)"/>
<path d="M259.546 419.991L256.104 412L252.663 419.991L244 420.794L250.536 426.536L248.623 435.024L256.104 430.582L263.585 435.024L261.672 426.536L268.209 420.794L259.546 419.991Z" fill="url(#paint56_linear_1_1907)"/>
<path d="M298.104 362.364L303.61 375.149L317.471 376.435L307.013 385.622L310.074 399.202L298.104 392.095L286.135 399.202L289.196 385.622L278.737 376.435L292.598 375.149L298.104 362.364Z" fill="url(#paint57_linear_1_1907)"/>
<path d="M340.104 412L343.546 419.991L352.209 420.794L345.672 426.536L347.585 435.024L340.104 430.582L332.623 435.024L334.536 426.536L328 420.794L336.663 419.991L340.104 412Z" fill="url(#paint58_linear_1_1907)"/>
<path d="M387.61 375.149L382.104 362.364L376.598 375.149L362.737 376.435L373.196 385.622L370.135 399.202L382.104 392.095L394.074 399.202L391.013 385.622L401.471 376.435L387.61 375.149Z" fill="url(#paint59_linear_1_1907)"/>
<path d="M427.546 419.991L424.104 412L420.663 419.991L412 420.794L418.536 426.536L416.623 435.024L424.104 430.582L431.585 435.024L429.672 426.536L436.209 420.794L427.546 419.991Z" fill="url(#paint60_linear_1_1907)"/>
<defs>
<linearGradient id="paint0_linear_1_1907" x1="214.104" y1="-8" x2="214.104" y2="435.024" gradientUnits="userSpaceOnUse">
<stop stop-color="white" stop-opacity="0.08"/>
<stop offset="1" stop-color="white" stop-opacity="0"/>
</linearGradient>
<linearGradient id="paint1_linear_1_1907" x1="214.104" y1="-8" x2="214.104" y2="435.024" gradientUnits="userSpaceOnUse">
<stop stop-color="white" stop-opacity="0.08"/>
<stop offset="1" stop-color="white" stop-opacity="0"/>
</linearGradient>
<linearGradient id="paint2_linear_1_1907" x1="214.104" y1="-8" x2="214.104" y2="435.024" gradientUnits="userSpaceOnUse">
<stop stop-color="white" stop-opacity="0.08"/>
<stop offset="1" stop-color="white" stop-opacity="0"/>
</linearGradient>
<linearGradient id="paint3_linear_1_1907" x1="214.104" y1="-8" x2="214.104" y2="435.024" gradientUnits="userSpaceOnUse">
<stop stop-color="white" stop-opacity="0.08"/>
<stop offset="1" stop-color="white" stop-opacity="0"/>
</linearGradient>
<linearGradient id="paint4_linear_1_1907" x1="214.104" y1="-8" x2="214.104" y2="435.024" gradientUnits="userSpaceOnUse">
<stop stop-color="white" stop-opacity="0.08"/>
<stop offset="1" stop-color="white" stop-opacity="0"/>
</linearGradient>
<linearGradient id="paint5_linear_1_1907" x1="214.104" y1="-8" x2="214.104" y2="435.024" gradientUnits="userSpaceOnUse">
<stop stop-color="white" stop-opacity="0.08"/>
<stop offset="1" stop-color="white" stop-opacity="0"/>
</linearGradient>
<linearGradient id="paint6_linear_1_1907" x1="214.104" y1="-8" x2="214.104" y2="435.024" gradientUnits="userSpaceOnUse">
<stop stop-color="white" stop-opacity="0.08"/>
<stop offset="1" stop-color="white" stop-opacity="0"/>
</linearGradient>
<linearGradient id="paint7_linear_1_1907" x1="214.104" y1="-8" x2="214.104" y2="435.024" gradientUnits="userSpaceOnUse">
<stop stop-color="white" stop-opacity="0.08"/>
<stop offset="1" stop-color="white" stop-opacity="0"/>
</linearGradient>
<linearGradient id="paint8_linear_1_1907" x1="214.104" y1="-8" x2="214.104" y2="435.024" gradientUnits="userSpaceOnUse">
<stop stop-color="white" stop-opacity="0.08"/>
<stop offset="1" stop-color="white" stop-opacity="0"/>
</linearGradient>
<linearGradient id="paint9_linear_1_1907" x1="214.104" y1="-8" x2="214.104" y2="435.024" gradientUnits="userSpaceOnUse">
<stop stop-color="white" stop-opacity="0.08"/>
<stop offset="1" stop-color="white" stop-opacity="0"/>
</linearGradient>
<linearGradient id="paint10_linear_1_1907" x1="214.104" y1="-8" x2="214.104" y2="435.024" gradientUnits="userSpaceOnUse">
<stop stop-color="white" stop-opacity="0.08"/>
<stop offset="1" stop-color="white" stop-opacity="0"/>
</linearGradient>
<linearGradient id="paint11_linear_1_1907" x1="214.104" y1="-8" x2="214.104" y2="435.024" gradientUnits="userSpaceOnUse">
<stop stop-color="white" stop-opacity="0.08"/>
<stop offset="1" stop-color="white" stop-opacity="0"/>
</linearGradient>
<linearGradient id="paint12_linear_1_1907" x1="214.104" y1="-8" x2="214.104" y2="435.024" gradientUnits="userSpaceOnUse">
<stop stop-color="white" stop-opacity="0.08"/>
<stop offset="1" stop-color="white" stop-opacity="0"/>
</linearGradient>
<linearGradient id="paint13_linear_1_1907" x1="214.104" y1="-8" x2="214.104" y2="435.024" gradientUnits="userSpaceOnUse">
<stop stop-color="white" stop-opacity="0.08"/>
<stop offset="1" stop-color="white" stop-opacity="0"/>
</linearGradient>
<linearGradient id="paint14_linear_1_1907" x1="214.104" y1="-8" x2="214.104" y2="435.024" gradientUnits="userSpaceOnUse">
<stop stop-color="white" stop-opacity="0.08"/>
<stop offset="1" stop-color="white" stop-opacity="0"/>
</linearGradient>
<linearGradient id="paint15_linear_1_1907" x1="214.104" y1="-8" x2="214.104" y2="435.024" gradientUnits="userSpaceOnUse">
<stop stop-color="white" stop-opacity="0.08"/>
<stop offset="1" stop-color="white" stop-opacity="0"/>
</linearGradient>
<linearGradient id="paint16_linear_1_1907" x1="214.104" y1="-8" x2="214.104" y2="435.024" gradientUnits="userSpaceOnUse">
<stop stop-color="white" stop-opacity="0.08"/>
<stop offset="1" stop-color="white" stop-opacity="0"/>
</linearGradient>
<linearGradient id="paint17_linear_1_1907" x1="214.104" y1="-8" x2="214.104" y2="435.024" gradientUnits="userSpaceOnUse">
<stop stop-color="white" stop-opacity="0.08"/>
<stop offset="1" stop-color="white" stop-opacity="0"/>
</linearGradient>
<linearGradient id="paint18_linear_1_1907" x1="214.104" y1="-8" x2="214.104" y2="435.024" gradientUnits="userSpaceOnUse">
<stop stop-color="white" stop-opacity="0.08"/>
<stop offset="1" stop-color="white" stop-opacity="0"/>
</linearGradient>
<linearGradient id="paint19_linear_1_1907" x1="214.104" y1="-8" x2="214.104" y2="435.024" gradientUnits="userSpaceOnUse">
<stop stop-color="white" stop-opacity="0.08"/>
<stop offset="1" stop-color="white" stop-opacity="0"/>
</linearGradient>
<linearGradient id="paint20_linear_1_1907" x1="214.104" y1="-8" x2="214.104" y2="435.024" gradientUnits="userSpaceOnUse">
<stop stop-color="white" stop-opacity="0.08"/>
<stop offset="1" stop-color="white" stop-opacity="0"/>
</linearGradient>
<linearGradient id="paint21_linear_1_1907" x1="214.104" y1="-8" x2="214.104" y2="435.024" gradientUnits="userSpaceOnUse">
<stop stop-color="white" stop-opacity="0.08"/>
<stop offset="1" stop-color="white" stop-opacity="0"/>
</linearGradient>
<linearGradient id="paint22_linear_1_1907" x1="214.104" y1="-8" x2="214.104" y2="435.024" gradientUnits="userSpaceOnUse">
<stop stop-color="white" stop-opacity="0.08"/>
<stop offset="1" stop-color="white" stop-opacity="0"/>
</linearGradient>
<linearGradient id="paint23_linear_1_1907" x1="214.104" y1="-8" x2="214.104" y2="435.024" gradientUnits="userSpaceOnUse">
<stop stop-color="white" stop-opacity="0.08"/>
<stop offset="1" stop-color="white" stop-opacity="0"/>
</linearGradient>
<linearGradient id="paint24_linear_1_1907" x1="214.104" y1="-8" x2="214.104" y2="435.024" gradientUnits="userSpaceOnUse">
<stop stop-color="white" stop-opacity="0.08"/>
<stop offset="1" stop-color="white" stop-opacity="0"/>
</linearGradient>
<linearGradient id="paint25_linear_1_1907" x1="214.104" y1="-8" x2="214.104" y2="435.024" gradientUnits="userSpaceOnUse">
<stop stop-color="white" stop-opacity="0.08"/>
<stop offset="1" stop-color="white" stop-opacity="0"/>
</linearGradient>
<linearGradient id="paint26_linear_1_1907" x1="214.104" y1="-8" x2="214.104" y2="435.024" gradientUnits="userSpaceOnUse">
<stop stop-color="white" stop-opacity="0.08"/>
<stop offset="1" stop-color="white" stop-opacity="0"/>
</linearGradient>
<linearGradient id="paint27_linear_1_1907" x1="214.104" y1="-8" x2="214.104" y2="435.024" gradientUnits="userSpaceOnUse">
<stop stop-color="white" stop-opacity="0.08"/>
<stop offset="1" stop-color="white" stop-opacity="0"/>
</linearGradient>
<linearGradient id="paint28_linear_1_1907" x1="214.104" y1="-8" x2="214.104" y2="435.024" gradientUnits="userSpaceOnUse">
<stop stop-color="white" stop-opacity="0.08"/>
<stop offset="1" stop-color="white" stop-opacity="0"/>
</linearGradient>
<linearGradient id="paint29_linear_1_1907" x1="214.104" y1="-8" x2="214.104" y2="435.024" gradientUnits="userSpaceOnUse">
<stop stop-color="white" stop-opacity="0.08"/>
<stop offset="1" stop-color="white" stop-opacity="0"/>
</linearGradient>
<linearGradient id="paint30_linear_1_1907" x1="214.104" y1="-8" x2="214.104" y2="435.024" gradientUnits="userSpaceOnUse">
<stop stop-color="white" stop-opacity="0.08"/>
<stop offset="1" stop-color="white" stop-opacity="0"/>
</linearGradient>
<linearGradient id="paint31_linear_1_1907" x1="214.104" y1="-8" x2="214.104" y2="435.024" gradientUnits="userSpaceOnUse">
<stop stop-color="white" stop-opacity="0.08"/>
<stop offset="1" stop-color="white" stop-opacity="0"/>
</linearGradient>
<linearGradient id="paint32_linear_1_1907" x1="214.104" y1="-8" x2="214.104" y2="435.024" gradientUnits="userSpaceOnUse">
<stop stop-color="white" stop-opacity="0.08"/>
<stop offset="1" stop-color="white" stop-opacity="0"/>
</linearGradient>
<linearGradient id="paint33_linear_1_1907" x1="214.104" y1="-8" x2="214.104" y2="435.024" gradientUnits="userSpaceOnUse">
<stop stop-color="white" stop-opacity="0.08"/>
<stop offset="1" stop-color="white" stop-opacity="0"/>
</linearGradient>
<linearGradient id="paint34_linear_1_1907" x1="214.104" y1="-8" x2="214.104" y2="435.024" gradientUnits="userSpaceOnUse">
<stop stop-color="white" stop-opacity="0.08"/>
<stop offset="1" stop-color="white" stop-opacity="0"/>
</linearGradient>
<linearGradient id="paint35_linear_1_1907" x1="214.104" y1="-8" x2="214.104" y2="435.024" gradientUnits="userSpaceOnUse">
<stop stop-color="white" stop-opacity="0.08"/>
<stop offset="1" stop-color="white" stop-opacity="0"/>
</linearGradient>
<linearGradient id="paint36_linear_1_1907" x1="214.104" y1="-8" x2="214.104" y2="435.024" gradientUnits="userSpaceOnUse">
<stop stop-color="white" stop-opacity="0.08"/>
<stop offset="1" stop-color="white" stop-opacity="0"/>
</linearGradient>
<linearGradient id="paint37_linear_1_1907" x1="214.104" y1="-8" x2="214.104" y2="435.024" gradientUnits="userSpaceOnUse">
<stop stop-color="white" stop-opacity="0.08"/>
<stop offset="1" stop-color="white" stop-opacity="0"/>
</linearGradient>
<linearGradient id="paint38_linear_1_1907" x1="214.104" y1="-8" x2="214.104" y2="435.024" gradientUnits="userSpaceOnUse">
<stop stop-color="white" stop-opacity="0.08"/>
<stop offset="1" stop-color="white" stop-opacity="0"/>
</linearGradient>
<linearGradient id="paint39_linear_1_1907" x1="214.104" y1="-8" x2="214.104" y2="435.024" gradientUnits="userSpaceOnUse">
<stop stop-color="white" stop-opacity="0.08"/>
<stop offset="1" stop-color="white" stop-opacity="0"/>
</linearGradient>
<linearGradient id="paint40_linear_1_1907" x1="214.104" y1="-8" x2="214.104" y2="435.024" gradientUnits="userSpaceOnUse">
<stop stop-color="white" stop-opacity="0.08"/>
<stop offset="1" stop-color="white" stop-opacity="0"/>
</linearGradient>
<linearGradient id="paint41_linear_1_1907" x1="214.104" y1="-8" x2="214.104" y2="435.024" gradientUnits="userSpaceOnUse">
<stop stop-color="white" stop-opacity="0.08"/>
<stop offset="1" stop-color="white" stop-opacity="0"/>
</linearGradient>
<linearGradient id="paint42_linear_1_1907" x1="214.104" y1="-8" x2="214.104" y2="435.024" gradientUnits="userSpaceOnUse">
<stop stop-color="white" stop-opacity="0.08"/>
<stop offset="1" stop-color="white" stop-opacity="0"/>
</linearGradient>
<linearGradient id="paint43_linear_1_1907" x1="214.104" y1="-8" x2="214.104" y2="435.024" gradientUnits="userSpaceOnUse">
<stop stop-color="white" stop-opacity="0.08"/>
<stop offset="1" stop-color="white" stop-opacity="0"/>
</linearGradient>
<linearGradient id="paint44_linear_1_1907" x1="214.104" y1="-8" x2="214.104" y2="435.024" gradientUnits="userSpaceOnUse">
<stop stop-color="white" stop-opacity="0.08"/>
<stop offset="1" stop-color="white" stop-opacity="0"/>
</linearGradient>
<linearGradient id="paint45_linear_1_1907" x1="214.104" y1="-8" x2="214.104" y2="435.024" gradientUnits="userSpaceOnUse">
<stop stop-color="white" stop-opacity="0.08"/>
<stop offset="1" stop-color="white" stop-opacity="0"/>
</linearGradient>
<linearGradient id="paint46_linear_1_1907" x1="214.104" y1="-8" x2="214.104" y2="435.024" gradientUnits="userSpaceOnUse">
<stop stop-color="white" stop-opacity="0.08"/>
<stop offset="1" stop-color="white" stop-opacity="0"/>
</linearGradient>
<linearGradient id="paint47_linear_1_1907" x1="214.104" y1="-8" x2="214.104" y2="435.024" gradientUnits="userSpaceOnUse">
<stop stop-color="white" stop-opacity="0.08"/>
<stop offset="1" stop-color="white" stop-opacity="0"/>
</linearGradient>
<linearGradient id="paint48_linear_1_1907" x1="214.104" y1="-8" x2="214.104" y2="435.024" gradientUnits="userSpaceOnUse">
<stop stop-color="white" stop-opacity="0.08"/>
<stop offset="1" stop-color="white" stop-opacity="0"/>
</linearGradient>
<linearGradient id="paint49_linear_1_1907" x1="214.104" y1="-8" x2="214.104" y2="435.024" gradientUnits="userSpaceOnUse">
<stop stop-color="white" stop-opacity="0.08"/>
<stop offset="1" stop-color="white" stop-opacity="0"/>
</linearGradient>
<linearGradient id="paint50_linear_1_1907" x1="214.104" y1="-8" x2="214.104" y2="435.024" gradientUnits="userSpaceOnUse">
<stop stop-color="white" stop-opacity="0.08"/>
<stop offset="1" stop-color="white" stop-opacity="0"/>
</linearGradient>
<linearGradient id="paint51_linear_1_1907" x1="214.104" y1="-8" x2="214.104" y2="435.024" gradientUnits="userSpaceOnUse">
<stop stop-color="white" stop-opacity="0.08"/>
<stop offset="1" stop-color="white" stop-opacity="0"/>
</linearGradient>
<linearGradient id="paint52_linear_1_1907" x1="214.104" y1="-8" x2="214.104" y2="435.024" gradientUnits="userSpaceOnUse">
<stop stop-color="white" stop-opacity="0.08"/>
<stop offset="1" stop-color="white" stop-opacity="0"/>
</linearGradient>
<linearGradient id="paint53_linear_1_1907" x1="214.104" y1="-8" x2="214.104" y2="435.024" gradientUnits="userSpaceOnUse">
<stop stop-color="white" stop-opacity="0.08"/>
<stop offset="1" stop-color="white" stop-opacity="0"/>
</linearGradient>
<linearGradient id="paint54_linear_1_1907" x1="214.104" y1="-8" x2="214.104" y2="435.024" gradientUnits="userSpaceOnUse">
<stop stop-color="white" stop-opacity="0.08"/>
<stop offset="1" stop-color="white" stop-opacity="0"/>
</linearGradient>
<linearGradient id="paint55_linear_1_1907" x1="214.104" y1="-8" x2="214.104" y2="435.024" gradientUnits="userSpaceOnUse">
<stop stop-color="white" stop-opacity="0.08"/>
<stop offset="1" stop-color="white" stop-opacity="0"/>
</linearGradient>
<linearGradient id="paint56_linear_1_1907" x1="214.104" y1="-8" x2="214.104" y2="435.024" gradientUnits="userSpaceOnUse">
<stop stop-color="white" stop-opacity="0.08"/>
<stop offset="1" stop-color="white" stop-opacity="0"/>
</linearGradient>
<linearGradient id="paint57_linear_1_1907" x1="214.104" y1="-8" x2="214.104" y2="435.024" gradientUnits="userSpaceOnUse">
<stop stop-color="white" stop-opacity="0.08"/>
<stop offset="1" stop-color="white" stop-opacity="0"/>
</linearGradient>
<linearGradient id="paint58_linear_1_1907" x1="214.104" y1="-8" x2="214.104" y2="435.024" gradientUnits="userSpaceOnUse">
<stop stop-color="white" stop-opacity="0.08"/>
<stop offset="1" stop-color="white" stop-opacity="0"/>
</linearGradient>
<linearGradient id="paint59_linear_1_1907" x1="214.104" y1="-8" x2="214.104" y2="435.024" gradientUnits="userSpaceOnUse">
<stop stop-color="white" stop-opacity="0.08"/>
<stop offset="1" stop-color="white" stop-opacity="0"/>
</linearGradient>
<linearGradient id="paint60_linear_1_1907" x1="214.104" y1="-8" x2="214.104" y2="435.024" gradientUnits="userSpaceOnUse">
<stop stop-color="white" stop-opacity="0.08"/>
<stop offset="1" stop-color="white" stop-opacity="0"/>
</linearGradient>
</defs>
</svg>
